<?xml version="1.0" encoding="UTF-8"?>
<svg width="24px" height="24px" viewBox="0 0 24 24" version="1.1" xmlns="http://www.w3.org/2000/svg" xmlns:xlink="http://www.w3.org/1999/xlink">
    <title>icon/24/alert-24</title>
    <g id="icon/24/alert-24" stroke="none" stroke-width="1" fill="none" fill-rule="evenodd">
        <path d="M14.164,2.24420498 L23.131,17.748205 C24.094,19.415205 22.891,21.500205 20.966,21.500205 L3.034,21.500205 C1.108,21.500205 -0.094,19.415205 0.869,17.748205 L9.836,2.24420498 C10.799,0.579204976 13.201,0.579204976 14.164,2.24420498 Z M12,2.49723672 C11.6432716,2.49723672 11.3134436,2.68689476 11.134,2.99520498 L2.168,18.499205 C1.99018634,18.8088286 1.99056665,19.1896799 2.16899833,19.4989478 C2.34743001,19.8082156 2.67695184,19.9991692 3.034,20.000205 L20.966,20.000205 C21.3227398,19.9989663 21.6519176,19.8081499 21.8302847,19.4992 C22.0086517,19.1902501 22.009305,18.8097656 21.832,18.500205 L12.866,2.99420498 C12.6865564,2.68689476 12.3567284,2.49723672 12,2.49723672 Z M12,15.500205 C12.5522847,15.500205 13,15.9479202 13,16.500205 C13,17.0524897 12.5522847,17.500205 12,17.500205 C11.4477153,17.500205 11,17.0524897 11,16.500205 C11,15.9479202 11.4477153,15.500205 12,15.500205 Z M12,7.50020498 C12.4142136,7.50020498 12.75,7.83599141 12.75,8.25020498 L12.75,12.750205 C12.75,13.1644185 12.4142136,13.500205 12,13.500205 C11.5857864,13.500205 11.25,13.1644185 11.25,12.750205 L11.25,8.25020498 C11.25,7.83599141 11.5857864,7.50020498 12,7.50020498 Z" id="alert-24" fill="#000000" fill-rule="nonzero"></path>
    </g>
</svg>