<?xml version="1.0" encoding="UTF-8"?>
<svg width="24px" height="24px" viewBox="0 0 24 24" version="1.1" xmlns="http://www.w3.org/2000/svg" xmlns:xlink="http://www.w3.org/1999/xlink">
    <title>icon/24/arrow-right-24</title>
    <g id="icon/24/arrow-right-24" stroke="none" stroke-width="1" fill="none" fill-rule="evenodd">
        <path d="M13.345,18.7984734 C13.0525466,18.5056559 13.0525466,18.0312909 13.345,17.7384734 L18.315,12.7684734 L3.875,12.7684734 C3.46078644,12.7684734 3.125,12.432687 3.125,12.0184734 C3.125,11.6042598 3.46078644,11.2684734 3.875,11.2684734 L18.315,11.2684734 L13.345,6.2984734 C13.1438907,6.11173111 13.0610158,5.82995506 13.1289994,5.56406815 C13.196983,5.29818124 13.4049374,5.09076625 13.671,5.0234734 C13.9365762,4.95540371 14.2181215,5.0378727 14.405,5.2384734 L20.655,11.4884734 C20.9474534,11.7812909 20.9474534,12.2556559 20.655,12.5484734 L14.405,18.7984734 C14.1121825,19.0909268 13.6378175,19.0909268 13.345,18.7984734 Z" id="Path" fill="#000000" fill-rule="nonzero"></path>
    </g>
</svg>