<?xml version="1.0" encoding="UTF-8"?>
<svg width="24px" height="24px" viewBox="0 0 24 24" version="1.1" xmlns="http://www.w3.org/2000/svg" xmlns:xlink="http://www.w3.org/1999/xlink">
    <title>icon/24/bell-24</title>
    <g id="icon/24/bell-24" stroke="none" stroke-width="1" fill="none" fill-rule="evenodd">
        <path d="M12.0016723,1 C15.6826723,1 19.0016723,3.565 19.0016723,7 L19.0016723,11.539 C19.0016723,12.181 19.1906723,12.808 19.5466723,13.342 L21.7466723,16.64 C22.0579285,17.1056671 22.0872637,17.7049546 21.8229756,18.1987947 C21.5586874,18.6926348 21.0437847,19.0006627 20.4836723,19 L15.5016723,19 C15.5016724,20.2504296 14.8345761,21.4058742 13.7516723,22.031089 C12.6687686,22.6563038 11.3345761,22.6563038 10.2516723,22.031089 C9.16876853,21.4058742 8.5016723,20.2504296 8.50167233,19 L3.52067233,19 C2.96083834,19.0004642 2.44619104,18.6927571 2.18162224,18.1993834 C1.91705344,17.7060096 1.94551367,17.1070643 2.25567233,16.641 L4.45567233,13.342 C4.81168544,12.8080852 5.00166822,12.1807245 5.00167233,11.539 L5.00167233,7 C5.00167233,3.565 8.31967233,1 12.0016723,1 Z M6.50167233,7 L6.50167233,11.539 C6.50193209,12.4767495 6.22461676,13.393595 5.70467233,14.174 L3.50467233,17.472 L3.50167233,17.482 L3.50267233,17.489 L3.50667233,17.495 L3.51267233,17.499 L3.51967233,17.5 L20.4836723,17.5 L20.4906723,17.499 L20.4966723,17.495 L20.5006723,17.489 L20.5016723,17.483 C20.5016723,17.4794345 20.5006965,17.4759362 20.4986723,17.473 L18.2996723,14.174 C17.7795384,13.3936293 17.5018879,12.4768261 17.5016723,11.539 L17.5016723,7 C17.5016723,4.636 15.1186723,2.5 12.0016723,2.5 C8.88467233,2.5 6.50167233,4.636 6.50167233,7 Z M14.0016723,19 L10.0016723,19 C10.0016723,20.1045695 10.8971028,21 12.0016723,21 C13.1062418,21 14.0016723,20.1045695 14.0016723,19 Z" id="Shape" fill="#000000" fill-rule="nonzero"></path>
    </g>
</svg>