<?xml version="1.0" encoding="UTF-8"?>
<svg width="24px" height="24px" viewBox="0 0 24 24" version="1.1" xmlns="http://www.w3.org/2000/svg" xmlns:xlink="http://www.w3.org/1999/xlink">
    <title>icon/24/blocked-24</title>
    <g id="icon/24/blocked-24" stroke="none" stroke-width="1" fill="none" fill-rule="evenodd">
        <path d="M7.638,2.22 C7.778455,2.07921436 7.96913271,2 8.168,2 L15.832,2 C16.031,2 16.221,2.079 16.362,2.22 L21.78,7.638 C21.921,7.778 22,7.97 22,8.168 L22,15.832 C22,16.0308673 21.9207856,16.221545 21.78,16.362 L16.362,21.78 C16.221545,21.9207856 16.0308673,22 15.832,22 L8.168,22 C7.96913271,22 7.778455,21.9207856 7.638,21.78 L2.218,16.362 C2.07785965,16.2211955 1.999,16.0306585 1.999,15.832 L1.999,8.168 C1.999,7.969 2.078,7.779 2.219,7.638 L7.637,2.218 L7.638,2.22 Z M8.48,3.5 L3.5,8.48 L3.5,15.52 L8.48,20.5 L15.52,20.5 L20.5,15.52 L20.5,8.48 L15.52,3.5 L8.48,3.5 Z M7,11.75 C7,11.3357864 7.33578644,11 7.75,11 L16.25,11 C16.6642136,11 17,11.3357864 17,11.75 C17,12.1642136 16.6642136,12.5 16.25,12.5 L7.75,12.5 C7.33578644,12.5 7,12.1642136 7,11.75 L7,11.75 Z" id="Shape" fill="#000000" fill-rule="nonzero"></path>
    </g>
</svg>