<?xml version="1.0" encoding="UTF-8"?>
<svg width="24px" height="24px" viewBox="0 0 24 24" version="1.1" xmlns="http://www.w3.org/2000/svg" xmlns:xlink="http://www.w3.org/1999/xlink">
    <title>icon/24/desktop-download-24</title>
    <g id="icon/24/desktop-download-24" stroke="none" stroke-width="1" fill="none" fill-rule="evenodd">
        <path d="M8.25,3 C8.66421356,3 9,3.33578644 9,3.75 C9,4.16421356 8.66421356,4.5 8.25,4.5 L2.75,4.5 C2.61192881,4.5 2.5,4.61192881 2.5,4.75 L2.5,16.25 C2.5,16.388 2.612,16.5 2.75,16.5 L21.25,16.5 C21.3880712,16.5 21.5,16.3880712 21.5,16.25 L21.5,4.75 C21.5,4.61192881 21.3880712,4.5 21.25,4.5 L15.75,4.5 C15.3357864,4.5 15,4.16421356 15,3.75 C15,3.33578644 15.3357864,3 15.75,3 L21.25,3 C22.216,3 23,3.784 23,4.75 L23,16.25 C23,17.2164983 22.2164983,18 21.25,18 L15.046,18 C15.217,19.375 15.851,20.652 16.815,21.757 C17.0064678,21.9791001 17.0513688,22.2922399 16.9300261,22.5591937 C16.8086835,22.8261475 16.5432323,22.9982182 16.25,23 L7.75,23 C7.45578372,23.000314 7.18855789,22.8285712 7.06663175,22.5608077 C6.94470561,22.2930441 6.99060155,21.9787214 7.184,21.757 C8.149,20.652 8.783,19.375 8.954,18 L2.75,18 C1.78350169,18 1,17.2164983 1,16.25 L1,4.75 C1,3.784 1.784,3 2.75,3 L8.25,3 Z M13.537,18 L10.463,18 C10.337,19.266 9.899,20.445 9.24,21.5 L14.76,21.5 C14.1,20.445 13.662,19.266 13.537,18 Z M12,1 C12.4142136,1 12.75,1.33578644 12.75,1.75 L12.75,10.33 L14.699,8.22 C14.8774837,8.01076558 15.1561698,7.91600043 15.4252046,7.97305946 C15.6942394,8.03011849 15.9104666,8.22984876 15.9886528,8.49351975 C16.0668389,8.75719074 15.9944421,9.04250648 15.8,9.237 L12.55,12.757 C12.4080247,12.9107444 12.2082709,12.9981788 11.999,12.9981788 C11.7897291,12.9981788 11.5899753,12.9107444 11.448,12.757 L8.198,9.237 C8.00858577,9.0414302 7.94003149,8.7585709 8.01889027,8.49798197 C8.09774906,8.23739304 8.31163462,8.04000501 8.57770269,7.98227215 C8.84377075,7.92453929 9.12023019,8.01552967 9.3,8.22 L11.249,10.331 L11.25,1.75 C11.25,1.33578644 11.5857864,1 12,1 Z" id="Shape" fill="#000000" fill-rule="nonzero"></path>
    </g>
</svg>