<?xml version="1.0" encoding="UTF-8"?>
<svg width="24px" height="24px" viewBox="0 0 24 24" version="1.1" xmlns="http://www.w3.org/2000/svg" xmlns:xlink="http://www.w3.org/1999/xlink">
    <title>icon/24/file-directory-24</title>
    <g id="icon/24/file-directory-24" stroke="none" stroke-width="1" fill="none" fill-rule="evenodd">
        <path d="M2,4.75 C2,3.784 2.784,3 3.75,3 L8.721,3 C9.301,3 9.841,3.286 10.168,3.765 L11.572,5.828 C11.618,5.897 11.696,5.938 11.779,5.938 L20.25,5.938 C21.216,5.938 22,6.721 22,7.688 L22,19.25 C22,20.2164983 21.2164983,21 20.25,21 L3.75,21 C2.78350169,21 2,20.2164983 2,19.25 L2,4.75 Z M3.75,4.5 C3.61192881,4.5 3.5,4.61192881 3.5,4.75 L3.5,19.25 C3.5,19.388 3.612,19.5 3.75,19.5 L20.25,19.5 C20.3880712,19.5 20.5,19.3880712 20.5,19.25 L20.5,7.687 C20.5,7.54892881 20.3880712,7.437 20.25,7.437 L11.779,7.437 C11.1997889,7.43717545 10.6580131,7.15074936 10.332,6.672 L8.928,4.61 C8.88109141,4.54122846 8.80324625,4.5 8.72,4.5 L3.75,4.5 Z" id="Shape" fill="#000000" fill-rule="nonzero"></path>
    </g>
</svg>