<?xml version="1.0" encoding="UTF-8"?>
<svg width="24px" height="24px" viewBox="0 0 24 24" version="1.1" xmlns="http://www.w3.org/2000/svg" xmlns:xlink="http://www.w3.org/1999/xlink">
    <title>icon/24/gear-24</title>
    <g id="icon/24/gear-24" stroke="none" stroke-width="1" fill="none" fill-rule="evenodd">
        <path d="M12.0005007,1 C12.2665007,1 12.5325007,1.009 12.7975007,1.028 C13.5605007,1.083 14.1425007,1.645 14.3095007,2.332 L14.6615007,3.782 C14.6805007,3.86 14.7515007,3.953 14.8865007,4.003 C15.1335007,4.092 15.3765007,4.193 15.6145007,4.305 C15.7445007,4.366 15.8605007,4.349 15.9295007,4.307 L17.2045007,3.531 C17.8075007,3.163 18.6155007,3.178 19.1945007,3.678 C19.5965007,4.027 19.9745007,4.404 20.3225007,4.807 C20.8235007,5.385 20.8375007,6.193 20.4695007,6.797 L19.6935007,8.071 C19.6515007,8.14 19.6355007,8.256 19.6955007,8.386 C19.8075007,8.624 19.9085007,8.867 19.9985007,9.114 C20.0465007,9.249 20.1405007,9.319 20.2185007,9.339 L21.6685007,9.691 C22.3555007,9.858 22.9175007,10.44 22.9715007,11.203 C23.0095007,11.734 23.0095007,12.266 22.9715007,12.797 C22.9175007,13.56 22.3555007,14.142 21.6685007,14.309 L20.2185007,14.661 C20.1405007,14.68 20.0475007,14.751 19.9975007,14.886 C19.9085007,15.134 19.8075007,15.377 19.6955007,15.614 C19.6345007,15.744 19.6515007,15.86 19.6935007,15.929 L20.4695007,17.204 C20.8375007,17.807 20.8225007,18.615 20.3225007,19.194 C19.9735007,19.596 19.5965007,19.974 19.1935007,20.322 C18.6155007,20.823 17.8075007,20.837 17.2035007,20.469 L15.9295007,19.693 C15.8605007,19.651 15.7445007,19.635 15.6155007,19.695 C15.3772636,19.8070984 15.1340077,19.9082047 14.8865007,19.998 C14.7515007,20.046 14.6815007,20.14 14.6615007,20.218 L14.3095007,21.668 C14.1425007,22.355 13.5605007,22.917 12.7975007,22.971 C12.2665007,23.009 11.7345007,23.009 11.2035007,22.971 C10.4405007,22.917 9.85850069,22.355 9.69150069,21.668 L9.33950069,20.218 C9.32050069,20.14 9.24950069,20.047 9.11450069,19.997 C8.86709886,19.9081503 8.62414735,19.8073655 8.38650069,19.695 C8.25650069,19.634 8.14050069,19.651 8.07150069,19.693 L6.79650069,20.469 C6.19350069,20.837 5.38550069,20.822 4.80650069,20.322 C4.40450069,19.973 4.02650069,19.596 3.67850069,19.193 C3.17750069,18.615 3.16350069,17.807 3.53150069,17.203 L4.30750069,15.929 C4.34950069,15.86 4.36550069,15.744 4.30550069,15.615 C4.19340233,15.3767629 4.09229597,15.1335071 4.00250069,14.886 C3.95450069,14.751 3.86050069,14.681 3.78250069,14.661 L2.33250069,14.309 C1.64550069,14.142 1.08350069,13.56 1.02850069,12.797 C0.990499772,12.2663461 0.990499772,11.7336539 1.02850069,11.203 C1.08350069,10.44 1.64550069,9.858 2.33250069,9.691 L3.78250069,9.339 C3.86050069,9.32 3.95350069,9.249 4.00350069,9.114 C4.09250069,8.866 4.19350069,8.623 4.30550069,8.386 C4.36650069,8.256 4.34950069,8.14 4.30750069,8.071 L3.53150069,6.796 C3.16350069,6.193 3.17850069,5.385 3.67850069,4.806 C4.02750069,4.404 4.40450069,4.026 4.80750069,3.678 C5.38550069,3.177 6.19350069,3.163 6.79750069,3.531 L8.07150069,4.307 C8.14050069,4.349 8.25650069,4.365 8.38650069,4.305 C8.62450069,4.193 8.86750069,4.092 9.11450069,4.002 C9.24950069,3.954 9.31950069,3.86 9.33950069,3.782 L9.69150069,2.332 C9.85850069,1.645 10.4405007,1.083 11.2035007,1.028 C11.4665007,1.01 11.7325007,1 12.0005007,1 Z M11.3105007,2.525 C11.2555007,2.529 11.1755007,2.575 11.1495007,2.686 L10.7965007,4.136 C10.6446449,4.7312422 10.2045609,5.21075352 9.62450069,5.413 C9.42083003,5.48686305 9.22062328,5.56994885 9.02450069,5.662 C8.47070399,5.9298735 7.81946194,5.90208117 7.29050069,5.588 L6.01650069,4.812 C5.91850069,4.752 5.83050069,4.776 5.78850069,4.812 C5.44057357,5.11392652 5.11442721,5.44007289 4.81250069,5.788 C4.77650069,5.83 4.75250069,5.919 4.81250069,6.016 L5.58850069,7.29 C5.90250069,7.819 5.93050069,8.47 5.66250069,9.024 C5.57044954,9.22012259 5.48736373,9.42032935 5.41350069,9.624 C5.21149706,10.2047949 4.73144348,10.6454074 4.13550069,10.797 L2.68550069,11.148 C2.57550069,11.175 2.52950069,11.255 2.52550069,11.31 C2.49249877,11.7694081 2.49249877,12.2305919 2.52550069,12.69 C2.52950069,12.745 2.57550069,12.825 2.68650069,12.851 L4.13650069,13.204 C4.73174289,13.3558558 5.21125421,13.7959398 5.41350069,14.376 C5.48750069,14.58 5.57050069,14.78 5.66250069,14.976 C5.93050069,15.529 5.90250069,16.18 5.58850069,16.709 L4.81250069,17.984 C4.75250069,18.082 4.77650069,18.17 4.81250069,18.212 C5.11350069,18.56 5.44050069,18.887 5.78850069,19.188 C5.83050069,19.224 5.91950069,19.248 6.01650069,19.188 L7.29050069,18.412 C7.8191318,18.0970627 8.47065095,18.0688828 9.02450069,18.337 C9.22050069,18.43 9.42050069,18.513 9.62450069,18.587 C10.2052955,18.7890036 10.6459081,19.2690572 10.7975007,19.865 L11.1485007,21.315 C11.1755007,21.425 11.2555007,21.471 11.3105007,21.475 C11.7699088,21.5080019 12.2310926,21.5080019 12.6905007,21.475 C12.7455007,21.471 12.8255007,21.425 12.8515007,21.314 L13.2045007,19.864 C13.3563881,19.2685533 13.7963974,18.7887479 14.3765007,18.586 C14.5803243,18.5129052 14.7805511,18.4301447 14.9765007,18.338 C15.5299495,18.0701221 16.1809018,18.0979181 16.7095007,18.412 L17.9845007,19.188 C18.0825007,19.248 18.1705007,19.224 18.2125007,19.188 C18.5605007,18.887 18.8875007,18.56 19.1885007,18.212 C19.2245007,18.17 19.2485007,18.081 19.1885007,17.984 L18.4125007,16.709 C18.0986329,16.1804121 18.0704729,15.5297276 18.3375007,14.976 C18.4305007,14.78 18.5135007,14.58 18.5875007,14.376 C18.7895043,13.7952051 19.2695579,13.3545926 19.8655007,13.203 L21.3155007,12.852 C21.4255007,12.825 21.4715007,12.745 21.4755007,12.69 C21.5085026,12.2305919 21.5085026,11.7694081 21.4755007,11.31 C21.4715007,11.255 21.4255007,11.175 21.3145007,11.149 L19.8645007,10.796 C19.2385007,10.644 18.7845007,10.171 18.5865007,9.624 C18.5137632,9.42003875 18.4309957,9.21979478 18.3385007,9.024 C18.0706272,8.47020331 18.0984195,7.81896126 18.4125007,7.29 L19.1885007,6.016 C19.2485007,5.918 19.2245007,5.83 19.1885007,5.788 C18.8865742,5.44007289 18.5604278,5.11392652 18.2125007,4.812 C18.1705007,4.776 18.0815007,4.752 17.9845007,4.812 L16.7095007,5.588 C16.1809018,5.90208191 15.5299495,5.92987791 14.9765007,5.662 C14.7805329,5.56959894 14.5803098,5.48650634 14.3765007,5.413 C13.7961142,5.2103755 13.3557468,4.73058905 13.2035007,4.135 L12.8525007,2.685 C12.8255007,2.575 12.7455007,2.529 12.6905007,2.525 C12.2310926,2.49199809 11.7699088,2.49199809 11.3105007,2.525 Z M12.0005007,8 C14.2096397,8 16.0005007,9.790861 16.0005007,12 C16.0005007,14.209139 14.2096397,16 12.0005007,16 C9.79136169,16 8.00050069,14.209139 8.00050069,12 C8.00050069,9.790861 9.79136169,8 12.0005007,8 Z M12.0005007,9.5 C10.6197888,9.5 9.50050069,10.6192881 9.50050069,12 C9.50050069,13.3807119 10.6197888,14.5 12.0005007,14.5 C13.3812126,14.5 14.5005007,13.3807119 14.5005007,12 C14.5005007,10.6192881 13.3812126,9.5 12.0005007,9.5 Z" id="Shape" fill="#000000" fill-rule="nonzero"></path>
    </g>
</svg>