<?xml version="1.0" encoding="UTF-8"?>
<svg width="24px" height="24px" viewBox="0 0 24 24" version="1.1" xmlns="http://www.w3.org/2000/svg" xmlns:xlink="http://www.w3.org/1999/xlink">
    <title>icon/24/hourglass-24</title>
    <g id="icon/24/hourglass-24" stroke="none" stroke-width="1" fill="none" fill-rule="evenodd">
        <path d="M4.75,2 L19.25,2 C19.6642136,2 20,2.33578644 20,2.75 C20,3.16421356 19.6642136,3.5 19.25,3.5 L18.5,3.5 L18.5,6.482 C18.5,8.11240427 17.6638065,9.62887898 16.285,10.499 L14.241,11.789 C14.1688117,11.834874 14.1250858,11.9144689 14.1250858,12 C14.1250858,12.0855311 14.1688117,12.165126 14.241,12.211 L16.285,13.501 C17.6638065,14.371121 18.5,15.8875957 18.5,17.518 L18.5,20.5 L19.25,20.5 C19.6642136,20.5 20,20.8357864 20,21.25 C20,21.6642136 19.6642136,22 19.25,22 L4.75,22 C4.33578644,22 4,21.6642136 4,21.25 C4,20.8357864 4.33578644,20.5 4.75,20.5 L5.5,20.5 L5.5,17.518 C5.5,15.8875957 6.33619345,14.371121 7.715,13.501 L9.759,12.211 C9.83118827,12.165126 9.87491421,12.0855311 9.87491421,12 C9.87491421,11.9144689 9.83118827,11.834874 9.759,11.789 L7.715,10.499 C6.33619345,9.62887898 5.5,8.11240427 5.5,6.482 L5.5,3.5 L4.75,3.5 C4.33578644,3.5 4,3.16421356 4,2.75 C4,2.33578644 4.33578644,2 4.75,2 L4.75,2 Z M17,3.5 L7,3.5 L7,6.482 C7.00026477,7.59746424 7.57256729,8.63485694 8.516,9.23 L10.56,10.52 C11.0680295,10.8405607 11.3761371,11.3992895 11.3761371,12 C11.3761371,12.6007105 11.0680295,13.1594393 10.56,13.48 L8.516,14.77 C7.57256729,15.3651431 7.00026477,16.4025358 7,17.518 L7,20.5 L17,20.5 L17,17.518 C16.9997352,16.4025358 16.4274327,15.3651431 15.484,14.77 L13.44,13.48 C12.9319705,13.1594393 12.6238629,12.6007105 12.6238629,12 C12.6238629,11.3992895 12.9319705,10.8405607 13.44,10.52 L15.484,9.23 C16.4274327,8.63485694 16.9997352,7.59746424 17,6.482 L17,3.5 Z" id="Shape" fill="#000000" fill-rule="nonzero"></path>
    </g>
</svg>