<?xml version="1.0" encoding="UTF-8"?>
<svg width="24px" height="24px" viewBox="0 0 24 24" version="1.1" xmlns="http://www.w3.org/2000/svg" xmlns:xlink="http://www.w3.org/1999/xlink">
    <title>icon/24/iterations-24</title>
    <g id="icon/24/iterations-24" stroke="none" stroke-width="1" fill="none" fill-rule="evenodd">
        <path d="M2.05,9.5 C2.05,5.081722 5.631722,1.5 10.05,1.5 C14.468278,1.5 18.05,5.081722 18.05,9.5 C18.05,9.91421356 18.3857864,10.25 18.8,10.25 C19.2142136,10.25 19.55,9.91421356 19.55,9.5 C19.55,4.25329488 15.2967051,-8.70414851e-14 10.05,-8.70414851e-14 C4.80329488,-8.70414851e-14 0.55,4.25329488 0.55,9.5 C0.55,14.7467051 4.80329488,19 10.05,19 L20.99,19 L18.27,21.72 C18.0693468,21.9069706 17.9867508,22.1885555 18.0546145,22.4542889 C18.1224781,22.7200223 18.3299777,22.9275219 18.5957111,22.9953855 C18.8614445,23.0632492 19.1430294,22.9806532 19.33,22.78 L23.065,19.045 C23.505,18.606 23.505,17.894 23.065,17.455 L19.33,13.72 C19.0344902,13.4446411 18.5739903,13.4527661 18.2883782,13.7383782 C18.0027661,14.0239903 17.9946411,14.4844902 18.27,14.78 L20.99,17.5 L10.05,17.5 C5.631722,17.5 2.05,13.918278 2.05,9.5 Z" id="Path" fill="#000000" fill-rule="nonzero"></path>
    </g>
</svg>