<?xml version="1.0" encoding="UTF-8"?>
<svg width="24px" height="24px" viewBox="0 0 24 24" version="1.1" xmlns="http://www.w3.org/2000/svg" xmlns:xlink="http://www.w3.org/1999/xlink">
    <title>icon/24/log-24</title>
    <g id="icon/24/log-24" stroke="none" stroke-width="1" fill="none" fill-rule="evenodd">
        <path d="M19.8754084,0.00498076988 C20.9703991,0.00165278273 22.0214565,0.435393931 22.7954084,1.21 C23.5700144,1.98395183 24.0037556,3.03500922 24.0004276,4.13 C24.0004276,5.514 23.5244084,6.924 22.8724084,8.29 C22.2204084,9.655 21.3574084,11.047 20.5204084,12.394 L20.5124084,12.407 C19.6634084,13.775 18.8434084,15.098 18.2324084,16.377 C17.6184084,17.66 17.2504084,18.827 17.2504084,19.88 C17.250477,21.132358 18.1352194,22.210257 19.3635365,22.4544653 C20.5918536,22.6986736 21.8216204,22.0411716 22.3007245,20.8840804 C22.7798287,19.7269893 22.3748245,18.3925954 21.3334084,17.697 C21.1106533,17.5480202 20.9842988,17.2915189 21.0019415,17.0241174 C21.0195842,16.756716 21.1785437,16.5190391 21.4189415,16.4006174 C21.6593393,16.2821957 21.9446533,16.3010202 22.1674084,16.45 C23.6769187,17.4601872 24.3482753,19.3387012 23.8209735,21.0768188 C23.2936716,22.8149363 21.6917504,24.0037941 19.8754084,24.005 L4.50040836,24.005 C2.22223376,24.005 0.375408356,22.1581746 0.375408356,19.88 C0.375408356,17.646 1.63340836,15.224 2.96540836,12.978 C3.31340836,12.392 3.66740836,11.816 4.01540836,11.25 C4.81540836,9.946 5.58240836,8.697 6.15940836,7.512 L3.39040836,7.512 C2.56740836,7.512 1.50440836,7.319 0.823408356,6.477 C0.282548253,5.81526533 -0.00873367467,4.98459865 0.000199529455,4.13 C0.000199529455,1.85182541 1.84723376,0.00498076988 4.12540836,0.00498076988 L19.8754084,0.00498076988 Z M19.8754084,1.50498078 C18.4256609,1.50498078 17.2504084,2.68025253 17.2504084,4.13 C17.2504084,4.995 17.6714084,5.639 18.4174084,6.139 C18.6915688,6.32276104 18.8133775,6.66415087 18.717463,6.97995543 C18.6215486,7.29575998 18.3304569,7.51174599 18.0004084,7.512 L7.81240836,7.512 C7.16240836,8.995 6.18840836,10.581 5.23540836,12.131 C4.90140836,12.675 4.56940836,13.214 4.25540836,13.743 C2.90040836,16.03 1.87540836,18.114 1.87540836,19.88 C1.87540836,21.3297475 3.05066089,22.505 4.50040836,22.505 L16.6934084,22.505 C16.0825509,21.7667569 15.748978,20.8382002 15.7504084,19.88 C15.7504084,18.5 16.2264084,17.094 16.8784084,15.73 C17.5274084,14.372 18.3874084,12.987 19.2214084,11.644 L19.2384084,11.616 C20.0874084,10.249 20.9074084,8.924 21.5184084,7.644 C22.1324084,6.359 22.5004276,5.187 22.5004276,4.13 C22.5030789,3.43299145 22.2273749,2.76375966 21.7345118,2.27089657 C21.2416487,1.77803349 20.5724169,1.50232944 19.8754084,1.50498078 Z M11.7344084,18.005 C12.1486219,18.005 12.4844084,18.3407864 12.4844084,18.755 C12.4844084,19.1692136 12.1486219,19.505 11.7344084,19.505 L5.23440836,19.505 C4.82019479,19.505 4.48440836,19.1692136 4.48440836,18.755 C4.48440836,18.3407864 4.82019479,18.005 5.23440836,18.005 Z M13.3154084,14.005 C13.7296219,14.005 14.0654084,14.3407864 14.0654084,14.755 C14.0654084,15.1692136 13.7296219,15.505 13.3154084,15.505 L6.81540836,15.505 C6.40119479,15.505 6.06540836,15.1692136 6.06540836,14.755 C6.06540836,14.3407864 6.40119479,14.005 6.81540836,14.005 Z M15.6974084,10.005 C16.1116219,10.005 16.4474084,10.3407864 16.4474084,10.755 C16.4474084,11.1692136 16.1116219,11.505 15.6974084,11.505 L9.19740836,11.505 C8.78319479,11.505 8.44740836,11.1692136 8.44740836,10.755 C8.44740836,10.3407864 8.78319479,10.005 9.19740836,10.005 Z M16.6934084,1.505 L4.12540836,1.505 C2.67566089,1.505 1.50040836,2.68025253 1.50040836,4.13 C1.49040836,4.641 1.66340836,5.138 1.98740836,5.533 C2.24140836,5.846 2.72740836,6.012 3.38940836,6.012 L16.2494084,6.012 C15.9156433,5.44145989 15.7431664,4.7909559 15.7504084,4.13 C15.7491463,3.17182895 16.0826993,2.24332772 16.6934084,1.505 Z" id="Shape" fill="#000000" fill-rule="nonzero"></path>
    </g>
</svg>