<?xml version="1.0" encoding="UTF-8"?>
<svg width="24px" height="24px" viewBox="0 0 24 24" version="1.1" xmlns="http://www.w3.org/2000/svg" xmlns:xlink="http://www.w3.org/1999/xlink">
    <title>icon/24/paper-airplane-24</title>
    <g id="icon/24/paper-airplane-24" stroke="none" stroke-width="1" fill="none" fill-rule="evenodd">
        <path d="M1.46943575,1.85003938 C1.88203021,1.48631697 2.47177623,1.40369744 2.96843575,1.64003938 L22.3034357,10.8550394 C22.7022039,11.045505 22.9560836,11.4481195 22.9560836,11.8900394 C22.9560836,12.3319593 22.7022039,12.7345738 22.3034357,12.9250394 L2.96843575,22.1400394 C2.50719256,22.3596358 1.96219743,22.3052081 1.55349214,21.9987316 C1.14478686,21.6922551 0.939854207,21.1843332 1.02143575,20.6800394 L2.44643575,11.8900394 L1.02143575,3.10003938 C0.946349759,2.63409972 1.11547545,2.16220884 1.46943575,1.85003938 Z M3.84443575,12.6400394 L2.54043575,20.6820394 L20.9874357,11.8900394 L2.54043575,3.09803938 L3.84443575,11.1400394 L11.2064357,11.1400394 C11.6206493,11.1400394 11.9564357,11.4758258 11.9564357,11.8900394 C11.9564357,12.3042529 11.6206493,12.6400394 11.2064357,12.6400394 L3.84443575,12.6400394 Z" id="Shape" fill="#000000" fill-rule="nonzero"></path>
    </g>
</svg>