<?xml version="1.0" encoding="UTF-8"?>
<svg width="24px" height="24px" viewBox="0 0 24 24" version="1.1" xmlns="http://www.w3.org/2000/svg" xmlns:xlink="http://www.w3.org/1999/xlink">
    <title>icon/24/person-24</title>
    <g id="icon/24/person-24" stroke="none" stroke-width="1" fill="none" fill-rule="evenodd">
        <path d="M12.0002263,2.49999974 C14.4145226,2.49926058 16.5470375,4.07308628 17.2580161,6.380322 C17.9689947,8.68755771 17.0921911,11.18871 15.0962263,12.547 C18.5489348,13.813382 20.884622,17.0520697 20.9962263,20.728 C21.0101061,20.9994814 20.8760015,21.2572217 20.6457144,21.4016608 C20.4154272,21.5460999 20.1250112,21.5546245 19.8866484,21.4239416 C19.6482857,21.2932588 19.4992941,21.0438281 19.4972263,20.772 C19.3734216,16.7209591 16.0536585,13.5011021 12.0007263,13.5011021 C7.947794,13.5011021 4.62803094,16.7209591 4.50422626,20.772 C4.49179985,21.1862136 4.14593982,21.5119264 3.73172626,21.4995 C3.31751271,21.4870736 2.99179987,21.1412136 3.00422626,20.727 C3.11623271,17.051439 5.45184827,13.8132466 8.90422626,12.547 C6.90826146,11.18871 6.03145782,8.68755771 6.7424364,6.380322 C7.45341498,4.07308628 9.58592997,2.49926058 12.0002263,2.49999974 Z M8.00022626,8 C8.00022626,10.209139 9.79108726,12 12.0002263,12 C14.2093653,12 16.0002263,10.209139 16.0002263,8 C16.0002263,5.790861 14.2093653,4 12.0002263,4 C9.79108726,4 8.00022626,5.790861 8.00022626,8 Z" id="Shape" fill="#000000" fill-rule="nonzero"></path>
    </g>
</svg>