<?xml version="1.0" encoding="UTF-8"?>
<svg width="24px" height="24px" viewBox="0 0 24 24" version="1.1" xmlns="http://www.w3.org/2000/svg" xmlns:xlink="http://www.w3.org/1999/xlink">
    <title>icon/24/pin-24</title>
    <g id="icon/24/pin-24" stroke="none" stroke-width="1" fill="none" fill-rule="evenodd">
        <path d="M15.6135503,2.08136401 L21.9465503,8.41436401 C22.3648828,8.83239699 22.5437805,9.43343602 22.4221391,10.0121908 C22.3004977,10.5909456 21.8947754,11.0691105 21.3435503,11.283364 L19.7135503,11.916364 C18.0618979,12.5591821 16.8058381,13.9373331 16.3185503,15.641364 L15.1875503,19.600364 C15.0172696,20.1965771 14.5442089,20.6581713 13.9439978,20.813774 C13.3437867,20.9693767 12.706048,20.7957534 12.2675503,20.357364 L8.49955026,16.589364 L2.90455026,22.183364 C2.7151995,22.3727148 2.43921474,22.4466647 2.18055679,22.3773575 C1.92189883,22.3080503 1.71986396,22.1060154 1.65055678,21.8473575 C1.58124959,21.5886995 1.65519949,21.3127148 1.84455026,21.123364 L7.43855026,15.528364 L3.67055026,11.760364 C3.23216086,11.3218662 3.0585376,10.6841276 3.21414027,10.0839165 C3.36974295,9.48370535 3.83133715,9.01064463 4.42755026,8.84036401 L8.38655026,7.70936401 C10.0908917,7.22263315 11.469258,5.96637717 12.1115503,4.31436401 L12.7445503,2.68436401 C12.9588038,2.13313886 13.4369687,1.72741654 14.0157235,1.60577515 C14.5944782,1.48413377 15.1955173,1.66303142 15.6135503,2.08136401 Z M4.73155026,10.699364 L13.3285503,19.296364 C13.3911776,19.3589197 13.4822155,19.3836943 13.5679059,19.3615011 C13.6535964,19.3393079 13.7211626,19.2734559 13.7455503,19.188364 L14.8765503,15.229364 C15.4925695,13.0743543 17.0808823,11.3313909 19.1695503,10.518364 L20.7995503,9.88436401 C20.8779402,9.85361635 20.9355851,9.78547218 20.9529118,9.7030696 C20.9702385,9.62066703 20.9449189,9.53507802 20.8855503,9.47536401 L14.5525503,3.14236401 C14.4928362,3.08299536 14.4072472,3.05767581 14.3248447,3.07500251 C14.2424421,3.09232921 14.1742979,3.14997408 14.1435503,3.22836401 L13.5095503,4.85836401 C12.6965234,6.94703192 10.9535599,8.53534479 8.79855026,9.15136401 L4.83955026,10.282364 C4.75445833,10.3067516 4.68860639,10.3743179 4.66641318,10.4600084 C4.64421996,10.5456988 4.66899457,10.6367367 4.73155026,10.699364 Z" id="Shape" fill="#000000" fill-rule="nonzero"></path>
    </g>
</svg>