<?xml version="1.0" encoding="UTF-8"?>
<svg width="24px" height="24px" viewBox="0 0 24 24" version="1.1" xmlns="http://www.w3.org/2000/svg" xmlns:xlink="http://www.w3.org/1999/xlink">
    <title>icon/24/search-24</title>
    <g id="icon/24/search-24" stroke="none" stroke-width="1" fill="none" fill-rule="evenodd">
        <path d="M10.7495591,2.5 C13.950511,2.49964807 16.8627582,4.35090016 18.2209664,7.24941074 C19.5791747,10.1479213 19.1381683,13.5704689 17.0895591,16.03 L22.7795591,21.72 C22.9806683,21.9067423 23.0635433,22.1885183 22.9955597,22.4544052 C22.927576,22.7202922 22.7196216,22.9277071 22.4535591,22.995 C22.1879829,23.0630697 21.9064376,22.9806007 21.7195591,22.78 L16.0295591,17.09 C13.2315072,19.419758 9.23704332,19.6397899 6.20003085,17.6314519 C3.16301838,15.6231138 1.80166674,11.8613486 2.85003329,8.37454573 C3.89839983,4.88774288 7.10856109,2.50048071 10.7495591,2.5 L10.7495591,2.5 Z M3.99955907,10.75 C3.99955907,13.1615428 5.28610174,15.3899002 7.37455903,16.5956716 C9.46301632,17.801443 12.0361018,17.801443 14.1245591,16.5956716 C16.2130164,15.3899002 17.4995591,13.1615428 17.4995591,10.75 C17.4995591,7.02207798 14.4774811,4.0000001 10.7495591,4.0000001 C7.02163705,4.0000001 3.99955907,7.02207798 3.99955907,10.75 L3.99955907,10.75 Z" id="Shape" fill="#000000" fill-rule="nonzero"></path>
    </g>
</svg>