<?xml version="1.0" encoding="UTF-8"?>
<svg width="24px" height="24px" viewBox="0 0 24 24" version="1.1" xmlns="http://www.w3.org/2000/svg" xmlns:xlink="http://www.w3.org/1999/xlink">
    <title>icon/24/shield-check-24</title>
    <g id="icon/24/shield-check-24" stroke="none" stroke-width="1" fill="none" fill-rule="evenodd">
        <path d="M12.5572038,0.587243261 L20.8072038,3.26224326 C21.5284295,3.49621017 22.0169429,4.16801707 22.0172038,4.92624326 L22.0172038,9.95024326 C22.0172038,16.1402433 18.2462038,20.6542433 12.6162038,22.7802433 C12.2300336,22.9252464 11.804374,22.9252464 11.4182038,22.7802433 C5.78720376,20.6552433 2.01720376,16.1402433 2.01720376,9.95024326 L2.01720376,4.92624326 C2.01720376,4.16824326 2.50620376,3.49624326 3.22720376,3.26224326 L11.4772038,0.587243261 C11.8281786,0.473242359 12.2062289,0.473242359 12.5572038,0.587243261 Z M11.9402038,2.01324326 L3.69020376,4.68924326 C3.58717075,4.72226691 3.51720376,4.81804733 3.51720376,4.92624326 L3.51720376,9.95024326 C3.51720376,15.4102433 6.79720376,19.4332433 11.9472038,21.3762433 C11.99233,21.3932005 12.0420775,21.3932005 12.0872038,21.3762433 C17.2372038,19.4332433 20.5172038,15.4112433 20.5172038,9.95024326 L20.5172038,4.92624326 C20.5168375,4.81815038 20.4470426,4.72253544 20.3442038,4.68924326 L12.0942038,2.01324326 C12.0441176,1.99724049 11.9902899,1.99724049 11.9402038,2.01324326 Z M15.4872038,8.67024326 C15.7827135,8.3948844 16.2432135,8.40300939 16.5288256,8.68862146 C16.8144376,8.97423354 16.8225626,9.43473351 16.5472038,9.73024326 L11.5472038,14.7302433 C11.2543862,15.0226966 10.7800213,15.0226966 10.4872038,14.7302433 L7.98720376,12.2302433 C7.7118449,11.9347335 7.71996988,11.4742335 8.00558196,11.1886215 C8.29119404,10.9030094 8.751694,10.8948844 9.04720376,11.1702433 L11.0172038,13.1402433 Z" id="Shape" fill="#000000" fill-rule="nonzero"></path>
    </g>
</svg>