<?xml version="1.0" encoding="UTF-8"?>
<svg width="24px" height="24px" viewBox="0 0 24 24" version="1.1" xmlns="http://www.w3.org/2000/svg" xmlns:xlink="http://www.w3.org/1999/xlink">
    <title>icon/24/sync-24</title>
    <g id="icon/24/sync-24" stroke="none" stroke-width="1" fill="none" fill-rule="evenodd">
        <path d="M3.3800008,8.00000091 C4.93789433,4.64515054 8.3010741,2.49927018 12.0000008,2.50000091 C16.3544473,2.49973772 20.151823,5.45934181 21.2150008,9.68200182 C21.3155166,10.0840651 21.7229375,10.3285176 22.1250008,10.2280018 C22.5270641,10.127486 22.7715166,9.72006512 22.6710008,9.31800182 C21.4730008,4.53900182 17.1500008,1.00000091 12.0000008,1.00000091 C8.08906175,0.998413633 4.47165459,3.07442456 2.5000008,6.45200182 L2.5000008,4.75000182 C2.5000008,4.33578826 2.16421437,4.00000091 1.7500008,4.00000091 C1.33578724,4.00000091 1.0000008,4.33578826 1.0000008,4.75000182 L1.0000008,8.50000091 C1.0000008,9.05228657 1.44771605,9.50000091 2.0000008,9.50000091 L5.7500008,9.50000091 C6.16421437,9.50000091 6.5000008,9.16421538 6.5000008,8.75000182 C6.5000008,8.33578826 6.16421437,8.00000091 5.7500008,8.00000091 L3.3800008,8.00000091 Z M2.7850008,14.3180018 C2.67971791,13.9218055 2.27582748,13.6835493 1.87813722,13.7830402 C1.48044696,13.8825311 1.23632308,14.2829022 1.3300008,14.6820018 C2.5270008,19.4610018 6.8500008,23.0000018 12.0000008,23.0000018 C16.0520008,23.0000018 19.5920008,20.8090018 21.5000008,17.5490018 L21.5000008,19.2500018 C21.5000008,19.6642154 21.8357872,20.0000018 22.2500008,20.0000018 C22.6642144,20.0000018 23.0000008,19.6642154 23.0000008,19.2500018 L23.0000008,15.5000018 C23.0000008,14.9477171 22.5522856,14.5000018 22.0000008,14.5000018 L18.2500008,14.5000018 C17.8357872,14.5000018 17.5000008,14.8357883 17.5000008,15.2500018 C17.5000008,15.6642154 17.8357872,16.0000018 18.2500008,16.0000018 L20.6200008,16.0000018 C19.0621073,19.3548531 15.6989275,21.5007335 12.0000008,21.5000018 C7.5540008,21.5000018 3.8190008,18.4450018 2.7850008,14.3180018 Z" id="Shape" fill="#000000" fill-rule="nonzero"></path>
    </g>
</svg>