<?xml version="1.0" encoding="UTF-8"?>
<svg width="24px" height="24px" viewBox="0 0 24 24" version="1.1" xmlns="http://www.w3.org/2000/svg" xmlns:xlink="http://www.w3.org/1999/xlink">
    <title>icon/24/x-24</title>
    <g id="icon/24/x-24" stroke="none" stroke-width="1" fill="none" fill-rule="evenodd">
        <path d="M5.21934003,5.23936549 C5.51215758,4.94691212 5.98652249,4.94691212 6.27934003,5.23936549 L11.49934,10.4593655 L16.71934,5.23936549 C16.9060823,5.03825622 17.1878584,4.95538127 17.4537453,5.02336491 C17.7196322,5.09134854 17.9270472,5.29930292 17.99434,5.56536549 C18.0624097,5.83094171 17.9799407,6.11248701 17.77934,6.29936549 L12.55934,11.5193655 L17.77934,16.7393655 C17.9804493,16.9261078 18.0633243,17.2078838 17.9953406,17.4737707 C17.927357,17.7396577 17.7194026,17.9470726 17.45334,18.0143655 C17.1877638,18.0824352 16.9062185,17.9999662 16.71934,17.7993655 L11.49934,12.5793655 L6.27934003,17.7993655 C5.98367974,18.0745489 5.52331946,18.0665964 5.23734003,17.7813655 C4.95210911,17.4953861 4.94415663,17.0350258 5.21934003,16.7393655 L10.43934,11.5193655 L5.21934003,6.29936549 C4.92688666,6.00654795 4.92688666,5.53218304 5.21934003,5.23936549 Z" id="Path" fill="#000000" fill-rule="nonzero"></path>
    </g>
</svg>