<?xml version="1.0" encoding="UTF-8"?>
<svg width="24px" height="24px" viewBox="0 0 24 24" version="1.1" xmlns="http://www.w3.org/2000/svg" xmlns:xlink="http://www.w3.org/1999/xlink">
    <title>icon/24/zap-24</title>
    <g id="icon/24/zap-24" stroke="none" stroke-width="1" fill="none" fill-rule="evenodd">
        <path d="M15.7956653,1.32723406 C16.2689333,0.91469935 16.9650704,0.885742167 17.4709645,1.25754672 C17.9768585,1.62935127 18.1570743,2.30238003 17.9046653,2.87723406 L15.2266653,8.99823406 L19.3876653,8.99823406 C21.0106653,8.99823406 21.7596653,11.0142341 20.5306653,12.0732341 L8.18166533,22.7192341 C7.77806839,23.0713428 7.18461848,23.0975739 6.75152909,22.7824475 C6.3184397,22.4673211 6.16081128,21.8945872 6.37166533,21.4022341 L9.07566533,14.9982341 L4.75366533,14.9982341 C3.13466533,14.9982341 2.38366533,12.9902341 3.60566533,11.9282341 L15.7956653,1.32823406 L15.7956653,1.32723406 Z M16.2476653,2.92223406 L4.58966533,13.0592341 C4.51069634,13.127608 4.48256135,13.2378717 4.51911621,13.3357228 C4.55567107,13.4335739 4.64920924,13.4983834 4.75366533,13.4982341 L10.2036653,13.4982341 C10.4552506,13.4974734 10.6904118,13.623072 10.8296881,13.8325902 C10.9689643,14.0421084 10.9937482,14.3075544 10.8956653,14.5392341 L8.33666533,20.6052341 L19.5516653,10.9372341 C19.6306343,10.8688601 19.6587693,10.7585964 19.6222144,10.6607453 C19.5856596,10.5628942 19.4921214,10.4980847 19.3876653,10.4982341 L14.0796653,10.4982341 C13.8267456,10.4981038 13.5909262,10.3705079 13.4524508,10.1588644 C13.3139755,9.94722088 13.2914974,9.68003883 13.3926653,9.44823406 L16.2476653,2.92223406 Z" id="Shape" fill="#000000" fill-rule="nonzero"></path>
    </g>
</svg>