<?xml version="1.0" encoding="UTF-8"?>
<svg width="16px" height="16px" viewBox="0 0 16 16" version="1.1" xmlns="http://www.w3.org/2000/svg" xmlns:xlink="http://www.w3.org/1999/xlink">
    <title>icon/16/alert-16</title>
    <g id="icon/16/alert-16" stroke="none" stroke-width="1" fill="none" fill-rule="evenodd">
        <path d="M6.457,1.04720498 C7.116,-0.186795024 8.884,-0.186795024 9.543,1.04720498 L15.625,12.425205 C15.914904,12.9675301 15.8988811,13.622221 15.5827943,14.1497151 C15.2667076,14.6772093 14.6969479,15.000205 14.082,15.000205 L1.918,15.000205 C1.30305212,15.000205 0.733292437,14.6772093 0.417205663,14.1497151 C0.10111889,13.622221 0.0850959846,12.9675301 0.375,12.425205 L6.457,1.04720498 Z M8.22,1.75420498 C8.17635866,1.67334918 8.09188159,1.6229484 8,1.6229484 C7.90811841,1.6229484 7.82364134,1.67334918 7.78,1.75420498 L1.698,13.132205 C1.65655078,13.2096233 1.65876034,13.3031124 1.70382071,13.3784861 C1.74888108,13.4538598 1.83018421,13.5000647 1.918,13.500205 L14.082,13.500205 C14.1698158,13.5000647 14.2511189,13.4538598 14.2961793,13.3784861 C14.3412397,13.3031124 14.3434492,13.2096233 14.302,13.132205 L8.22,1.75420498 Z M8.75,5.75020498 L8.75,8.25020498 C8.75,8.66441854 8.41421356,9.00020498 8,9.00020498 C7.58578644,9.00020498 7.25,8.66441854 7.25,8.25020498 L7.25,5.75020498 C7.25,5.33599141 7.58578644,5.00020498 8,5.00020498 C8.41421356,5.00020498 8.75,5.33599141 8.75,5.75020498 Z M9,11.000205 C9,11.5524897 8.55228475,12.000205 8,12.000205 C7.44771525,12.000205 7,11.5524897 7,11.000205 C7,10.4479202 7.44771525,10.000205 8,10.000205 C8.55228475,10.000205 9,10.4479202 9,11.000205 Z" id="alert-16" fill="#000000" fill-rule="nonzero"></path>
    </g>
</svg>