<?xml version="1.0" encoding="UTF-8"?>
<svg width="16px" height="16px" viewBox="0 0 16 16" version="1.1" xmlns="http://www.w3.org/2000/svg" xmlns:xlink="http://www.w3.org/1999/xlink">
    <title>icon/16/bell-16</title>
    <g id="icon/16/bell-16" stroke="none" stroke-width="1" fill="none" fill-rule="evenodd">
        <path d="M8.00167233,16 C9.00983911,16.0003461 9.86065153,15.2502595 9.98667233,14.25 C10.0036723,14.113 9.88967233,14 9.75167233,14 L6.25167233,14 C6.11367233,14 5.99967233,14.113 6.01667233,14.25 C6.14269312,15.2502595 6.99350555,16.0003461 8.00167233,16 Z M3.00167233,5 C3.00167233,2.23857625 5.24024858,-9.9475983e-14 8.00167233,-9.9475983e-14 C10.7630961,-9.9475983e-14 13.0016723,2.23857625 13.0016723,5 L13.0016723,7.947 C13.0016723,7.997 13.0166723,8.045 13.0436723,8.086 L14.7466723,10.641 C15.0558945,11.1068955 15.0841448,11.7050087 14.8202121,12.1979757 C14.5562794,12.6909427 14.0428468,12.9990409 13.4836723,13 L2.51967233,13 C1.95925711,13.0013566 1.44380754,12.6934345 1.17937588,12.1993262 C0.914944223,11.705218 0.944670796,11.1055342 1.25667233,10.64 L2.95967233,8.086 C2.98684724,8.04471607 3.00143893,7.99642453 3.00167233,7.947 L3.00167233,5 Z M8.0016687,1.5 C6.0686757,1.5 4.5016687,3.06700338 4.5016687,5 L4.5016687,7.947 C4.5016687,8.293 4.39967233,8.63 4.20767233,8.917 L2.50467233,11.473 C2.50264818,11.4759362 2.5016687,11.4794345 2.5016687,11.483 L2.50267233,11.489 C2.50267233,11.491 2.50467233,11.493 2.50667233,11.495 L2.51267233,11.499 L2.51967233,11.5 L13.4836723,11.5 L13.4906723,11.499 L13.4966723,11.495 L13.5006723,11.489 L13.5016687,11.482 C13.5016687,11.4784345 13.5006965,11.4749362 13.4986723,11.472 L11.7956723,8.918 C11.6038592,8.63087655 11.5015422,8.29330008 11.5016687,7.948 L11.5016687,5 C11.5016687,3.06700338 9.93466895,1.5 8.0016687,1.5 Z" id="Shape" fill="#000000" fill-rule="nonzero"></path>
    </g>
</svg>