<?xml version="1.0" encoding="UTF-8"?>
<svg width="16px" height="16px" viewBox="0 0 16 16" version="1.1" xmlns="http://www.w3.org/2000/svg" xmlns:xlink="http://www.w3.org/1999/xlink">
    <title>icon/16/blocked-16</title>
    <g id="icon/16/blocked-16" stroke="none" stroke-width="1" fill="none" fill-rule="evenodd">
        <path d="M4.467,0.22 C4.607455,0.0792143562 4.79813271,0 4.997,0 L11.003,0 C11.202,0 11.392,0.079 11.533,0.22 L15.78,4.467 C15.921,4.607 16,4.798 16,4.997 L16,11.003 C16,11.2018673 15.9207856,11.392545 15.78,11.533 L11.533,15.78 C11.392545,15.9207856 11.2018673,16 11.003,16 L4.997,16 C4.79813271,16 4.607455,15.9207856 4.467,15.78 L0.22,11.533 C0.0792143562,11.392545 0,11.2018673 0,11.003 L0,4.997 C0,4.798 0.079,4.608 0.22,4.467 L4.467,0.22 Z M5.307,1.5 L1.5,5.308 L1.5,10.692 L5.308,14.5 L10.692,14.5 L14.5,10.692 L14.5,5.308 L10.692,1.5 L5.307,1.5 Z M4,7.75 C4,7.33578644 4.33578644,7 4.75,7 L11.25,7 C11.6642136,7 12,7.33578644 12,7.75 C12,8.16421356 11.6642136,8.5 11.25,8.5 L4.75,8.5 C4.55108763,8.5 4.3603222,8.42098237 4.21966991,8.28033009 C4.07901763,8.1396778 4,7.94891237 4,7.75 L4,7.75 Z" id="Shape" fill="#000000" fill-rule="nonzero"></path>
    </g>
</svg>