<?xml version="1.0" encoding="UTF-8"?>
<svg width="16px" height="16px" viewBox="0 0 16 16" version="1.1" xmlns="http://www.w3.org/2000/svg" xmlns:xlink="http://www.w3.org/1999/xlink">
    <title>icon/16/book-16</title>
    <g id="icon/16/book-16" stroke="none" stroke-width="1" fill="none" fill-rule="evenodd">
        <path d="M0.0172037582,1.75 C0.0172037582,1.33578644 0.352990196,0.99999557 0.767203758,0.99999557 L5.02020376,0.99999557 C6.24720376,0.99999557 7.33720376,1.59 8.02020376,2.501 C8.72810267,1.55463343 9.8413716,0.998184321 11.0232038,0.99999557 L15.2682038,0.99999557 C15.6824173,0.99999557 16.0182038,1.33578644 16.0182038,1.75 L16.0182038,12.25 C16.0182038,12.6642136 15.6824173,12.9999956 15.2682038,12.9999956 L10.7612038,12.9999956 C10.1644647,12.9999956 9.59216459,13.2370443 9.17020376,13.659 L8.54820376,14.28 C8.25538621,14.5724534 7.7810213,14.5724534 7.48820376,14.28 L6.86620376,13.659 C6.44424292,13.2370443 5.87194284,12.9999956 5.27520376,12.9999956 L0.767203758,12.9999956 C0.352990196,12.9999956 0.0172037582,12.6642136 0.0172037582,12.25 L0.0172037582,1.75 Z M7.26820376,12.074 L7.27220376,7.001 L7.27020376,4.748 C7.26909988,3.50614043 6.26206382,2.5 5.02020376,2.5 L1.51720376,2.5 L1.51720376,11.5 L5.27420376,11.5 C5.97962878,11.4999758 6.6707558,11.6989262 7.26820376,12.074 Z M8.77220376,4.75 L8.76820376,12.072 C9.36533041,11.6980904 10.0556694,11.4998605 10.7602038,11.5 L14.5172038,11.5 L14.5172038,2.5 L11.0222038,2.5 C9.77956307,2.5 8.77220376,3.50735931 8.77220376,4.75 L8.77220376,4.75 Z" id="Shape" fill="#000000" fill-rule="nonzero"></path>
    </g>
</svg>