<?xml version="1.0" encoding="UTF-8"?>
<svg width="16px" height="16px" viewBox="0 0 16 16" version="1.1" xmlns="http://www.w3.org/2000/svg" xmlns:xlink="http://www.w3.org/1999/xlink">
    <title>icon/16/desktop-download-16</title>
    <g id="icon/16/desktop-download-16" stroke="none" stroke-width="1" fill="none" fill-rule="evenodd">
        <path d="M4.75,1 C5.16421356,1 5.5,1.33578644 5.5,1.75 C5.5,2.16421356 5.16421356,2.5 4.75,2.5 L1.75,2.5 C1.68365057,2.4998815 1.61997537,2.52614303 1.573,2.573 C1.52614303,2.61997537 1.4998815,2.68365057 1.5,2.75 L1.5,10.25 C1.5,10.3880712 1.61192881,10.5 1.75,10.5 L14.25,10.5 C14.3880712,10.5 14.5,10.3880712 14.5,10.25 L14.5,2.75 C14.5,2.61192881 14.3880712,2.5 14.25,2.5 L11.25,2.5 C10.9820508,2.5 10.7344555,2.35705081 10.6004809,2.125 C10.4665063,1.89294919 10.4665063,1.60705081 10.6004809,1.375 C10.7344555,1.14294919 10.9820508,1 11.25,1 L14.25,1 C15.2164983,1 16,1.78350169 16,2.75 L16,10.25 C16,11.2164983 15.2164983,12 14.25,12 L10.523,12 C10.622,13.041 11.043,13.872 11.815,14.757 C12.0082792,14.9785849 12.0542476,15.2926724 11.9325749,15.5603522 C11.8109023,15.828032 11.5440352,16 11.25,16 L4.75,16 C4.45596481,16 4.18909772,15.828032 4.06742508,15.5603522 C3.94575245,15.2926724 3.99172085,14.9785849 4.185,14.757 C4.957,13.872 5.377,13.041 5.477,12 L1.75,12 C0.783501688,12 0,11.2164983 0,10.25 L0,2.75 C0,1.78350169 0.783501688,1 1.75,1 L4.75,1 Z M9.018,12 L6.982,12 C6.92341797,12.8812164 6.66157916,13.7368988 6.217,14.5 L9.783,14.5 C9.33842084,13.7368988 9.07658203,12.8812164 9.018,12 Z M8,0 C8.41421356,0 8.75,0.335786438 8.75,0.75 L8.75,5 L10.896,5 C10.9972544,4.99981884 11.0886192,5.06073144 11.1273922,5.15426836 C11.1661651,5.24780528 11.1446884,5.3554929 11.073,5.427 L8.177,8.323 C8.13009787,8.37002085 8.06641363,8.39644689 8,8.39644689 C7.93358637,8.39644689 7.86990213,8.37002085 7.823,8.323 L4.927,5.427 C4.85531158,5.3554929 4.83383493,5.24780528 4.87260785,5.15426836 C4.91138076,5.06073144 5.00274556,4.99981884 5.104,5 L7.25,5 L7.25,0.75 C7.25,0.335786438 7.58578644,0 8,0 Z" id="Shape" fill="#000000" fill-rule="nonzero"></path>
    </g>
</svg>