<?xml version="1.0" encoding="UTF-8"?>
<svg width="16px" height="16px" viewBox="0 0 16 16" version="1.1" xmlns="http://www.w3.org/2000/svg" xmlns:xlink="http://www.w3.org/1999/xlink">
    <title>icon/16/file-directory-16</title>
    <g id="icon/16/file-directory-16" stroke="none" stroke-width="1" fill="none" fill-rule="evenodd">
        <path d="M0,2.75 C0,1.784 0.784,1 1.75,1 L5,1 C5.55,1 6.07,1.26 6.4,1.7 L7.3,2.9 C7.3472136,2.96295146 7.42131067,3 7.5,3 L14.25,3 C15.216,3 16,3.784 16,4.75 L16,13.25 C16,14.2164983 15.2164983,15 14.25,15 L1.75,15 C0.783501688,15 0,14.2164983 0,13.25 L0,2.75 Z M1.75,2.5 C1.61192881,2.5 1.5,2.61192881 1.5,2.75 L1.5,13.25 C1.5,13.388 1.612,13.5 1.75,13.5 L14.25,13.5 C14.3880712,13.5 14.5,13.3880712 14.5,13.25 L14.5,4.75 C14.5,4.61192881 14.3880712,4.5 14.25,4.5 L7.5,4.5 C6.95,4.5 6.43,4.24 6.1,3.8 L5.2,2.6 C5.1527864,2.53704854 5.07868933,2.5 5,2.5 L1.75,2.5 Z" id="Shape" fill="#000000" fill-rule="nonzero"></path>
    </g>
</svg>