<?xml version="1.0" encoding="UTF-8"?>
<svg width="16px" height="16px" viewBox="0 0 16 16" version="1.1" xmlns="http://www.w3.org/2000/svg" xmlns:xlink="http://www.w3.org/1999/xlink">
    <title>icon/16/hourglass-16</title>
    <g id="icon/16/hourglass-16" stroke="none" stroke-width="1" fill="none" fill-rule="evenodd">
        <path d="M2.75,1 L13.25,1 C13.6642136,1 14,1.33578644 14,1.75 C14,2.16421356 13.6642136,2.5 13.25,2.5 L12.5,2.5 L12.5,3.75 C12.5,5.24509719 11.7960778,6.65294169 10.6,7.55 L10.267,7.8 C10.2040485,7.8472136 10.167,7.92131067 10.167,8 C10.167,8.07868933 10.2040485,8.1527864 10.267,8.2 L10.6,8.45 C11.7960778,9.34705831 12.5,10.7549028 12.5,12.25 L12.5,13.5 L13.25,13.5 C13.6642136,13.5 14,13.8357864 14,14.25 C14,14.6642136 13.6642136,15 13.25,15 L2.75,15 C2.33578644,15 2,14.6642136 2,14.25 C2,13.8357864 2.33578644,13.5 2.75,13.5 L3.5,13.5 L3.5,12.25 C3.5,10.7549028 4.20392225,9.34705831 5.4,8.45 L5.733,8.2 C5.79595146,8.1527864 5.833,8.07868933 5.833,8 C5.833,7.92131067 5.79595146,7.8472136 5.733,7.8 L5.4,7.55 C4.20392225,6.65294169 3.5,5.24509719 3.5,3.75 L3.5,2.5 L2.75,2.5 C2.33578644,2.5 2,2.16421356 2,1.75 C2,1.33578644 2.33578644,1 2.75,1 L2.75,1 Z M11,2.5 L5,2.5 L5,3.75 C5,4.773 5.482,5.736 6.3,6.35 L6.633,6.6 C7.567,7.3 7.567,8.7 6.633,9.4 L6.3,9.65 C5.48175512,10.2638803 5.00015732,11.2270759 5,12.25 L5,13.5 L11,13.5 L11,12.25 C10.9998427,11.2270759 10.5182449,10.2638803 9.7,9.65 L9.367,9.4 C8.92558734,9.06999256 8.66566327,8.55113523 8.66566327,8 C8.66566327,7.44886477 8.92558734,6.93000744 9.367,6.6 L9.7,6.35 C10.5182449,5.73611969 10.9998427,4.77292409 11,3.75 L11,2.5 Z" id="Shape" fill="#000000" fill-rule="nonzero"></path>
    </g>
</svg>