<?xml version="1.0" encoding="UTF-8"?>
<svg width="16px" height="16px" viewBox="0 0 16 16" version="1.1" xmlns="http://www.w3.org/2000/svg" xmlns:xlink="http://www.w3.org/1999/xlink">
    <title>icon/16/iterations-16</title>
    <g id="icon/16/iterations-16" stroke="none" stroke-width="1" fill="none" fill-rule="evenodd">
        <path d="M2.5,6.25 C2.5,3.62664744 4.62664744,1.5 7.25,1.5 C9.87335256,1.5 12,3.62664744 12,6.25 C12,6.66421356 12.3357864,7 12.75,7 C13.1642136,7 13.5,6.66421356 13.5,6.25 C13.5,2.79822031 10.7017797,3.99680289e-14 7.25,3.99680289e-14 C3.79822031,3.99680289e-14 1,2.79822031 1,6.25 C1,9.70177969 3.79822031,12.5 7.25,12.5 L12,12.5 L12,14.646 C12,14.869 12.27,14.981 12.427,14.823 L15.323,11.927 C15.3700209,11.8800979 15.3964469,11.8164136 15.3964469,11.75 C15.3964469,11.6835864 15.3700209,11.6199021 15.323,11.573 L12.427,8.677 C12.3554929,8.60531158 12.2478053,8.58383493 12.1542684,8.62260785 C12.0607314,8.66138076 11.9998188,8.75274556 12,8.854 L12,11 L7.25,11 C4.62664744,11 2.5,8.87335256 2.5,6.25 Z" id="Path" fill="#000000" fill-rule="nonzero"></path>
    </g>
</svg>