<?xml version="1.0" encoding="UTF-8"?>
<svg width="16px" height="16px" viewBox="0 0 16 16" version="1.1" xmlns="http://www.w3.org/2000/svg" xmlns:xlink="http://www.w3.org/1999/xlink">
    <title>icon/16/log-16</title>
    <g id="icon/16/log-16" stroke="none" stroke-width="1" fill="none" fill-rule="evenodd">
        <path d="M13.0004084,5.5067062e-14 C14.6544084,5.5067062e-14 16.0004084,1.328 16.0004084,3 C16.0004084,3.982 15.6624084,4.933 15.2174084,5.818 C14.7744084,6.697 14.1894084,7.576 13.6354084,8.406 L13.6244084,8.423 C13.0564084,9.276 12.5204084,10.082 12.1234084,10.869 C11.7254084,11.658 11.5004084,12.363 11.5004084,13.005 C11.5006747,13.720595 12.0063846,14.3363551 12.7082775,14.4757199 C13.4101704,14.6150848 14.1127689,14.2392413 14.3864077,13.5780318 C14.6600465,12.9168223 14.4285171,12.1543938 13.8334084,11.757 C13.5030418,11.5215823 13.4197399,11.0661495 13.645386,10.7290332 C13.871032,10.3919168 14.3238313,10.2953189 14.6674084,10.511 C15.7657875,11.2453032 16.2544657,12.6117439 15.870847,13.8760518 C15.4872282,15.1403598 14.3216343,16.005 13.0004084,16.005 L3.00040836,16.005 C1.34355411,16.005 0.000260260351,14.6618542 0.000260260351,13.005 C0.000260260351,11.423 0.891408356,9.87 1.77740836,8.499 C1.98640836,8.177 2.19540836,7.862 2.40040836,7.553 C2.87340836,6.844 3.32340836,6.167 3.68740836,5.505 L2.51040836,5.505 C1.93440836,5.505 1.12940836,5.372 0.603408356,4.722 C0.207193484,4.2361921 -0.00617927658,3.62685895 0.000260260351,3 C0.000260260351,1.34314575 1.34355411,5.5067062e-14 3.00040836,5.5067062e-14 L13.0004084,5.5067062e-14 Z M13.0004084,1.5 C12.1719812,1.5 11.5004084,2.17157288 11.5004084,3 C11.5004084,3.476 11.7234084,3.834 12.1674084,4.132 C12.4415688,4.31576104 12.5633775,4.65715087 12.467463,4.97295543 C12.3715486,5.28875998 12.0804569,5.50474599 11.7504084,5.505 L5.36840836,5.505 C4.90140836,6.508 4.22740836,7.52 3.59540836,8.468 C3.40340836,8.757 3.21440836,9.039 3.03740836,9.313 C2.13040836,10.716 1.50040836,11.921 1.50040836,13.005 C1.50040836,13.8334271 2.17198123,14.505 3.00040836,14.505 L10.4014084,14.505 C10.1379423,14.0490532 9.99960817,13.531594 10.0004084,13.005 C10.0004084,12.026 10.3384084,11.077 10.7844084,10.193 C11.2254084,9.319 11.8074084,8.445 12.3594084,7.617 L12.3764084,7.591 C12.9444084,6.738 13.4794084,5.933 13.8774084,5.143 C14.2754084,4.353 14.5004084,3.646 14.5004084,3 C14.5004084,2.162 13.8314084,1.5 13.0004084,1.5 Z M8.00040836,10.505 C8.41462192,10.505 8.75040836,10.8407864 8.75040836,11.255 C8.75040836,11.6692136 8.41462192,12.005 8.00040836,12.005 L4.00040836,12.005 C3.58619479,12.005 3.25040836,11.6692136 3.25040836,11.255 C3.25040836,10.8407864 3.58619479,10.505 4.00040836,10.505 Z M9.75040836,7.505 C10.1646219,7.505 10.5004084,7.84078644 10.5004084,8.255 C10.5004084,8.66921356 10.1646219,9.005 9.75040836,9.005 L5.75040836,9.005 C5.33619479,9.005 5.00040836,8.66921356 5.00040836,8.255 C5.00040836,7.84078644 5.33619479,7.505 5.75040836,7.505 L9.75040836,7.505 Z M10.4014084,1.5 L3.00040836,1.5 C2.17198123,1.5 1.50040836,2.17157288 1.50040836,3 C1.50040836,3.321 1.60040836,3.569 1.77040836,3.778 C1.86740836,3.898 2.09540836,4.005 2.51040836,4.005 L10.1844084,4.005 C10.0605377,3.68451871 9.99811705,3.34357959 10.0004084,3 C10.0004084,2.454 10.1464084,1.941 10.4014084,1.5 Z" id="Shape" fill="#000000" fill-rule="nonzero"></path>
    </g>
</svg>