<?xml version="1.0" encoding="UTF-8"?>
<svg width="16px" height="16px" viewBox="0 0 16 16" version="1.1" xmlns="http://www.w3.org/2000/svg" xmlns:xlink="http://www.w3.org/1999/xlink">
    <title>icon/16/paper-airplane-16</title>
    <g id="icon/16/paper-airplane-16" stroke="none" stroke-width="1" fill="none" fill-rule="evenodd">
        <path d="M0.945435748,7.89003938 L0.0204357481,2.57003938 C-0.0631160144,2.08546236 0.125043362,1.59399439 0.510842168,1.28910906 C0.896640975,0.984223731 1.41829051,0.914750826 1.87043575,1.10803938 L15.2724357,6.85203938 C15.6871288,7.03046325 15.9558308,7.43859125 15.9558308,7.89003938 C15.9558308,8.3414875 15.6871288,8.7496155 15.2724357,8.92803938 L1.86943575,14.6720394 C1.41711046,14.8647536 0.895633494,14.7948922 0.509983049,14.4899157 C0.124332605,14.1849391 -0.0638380588,13.6936035 0.0194357481,13.2090394 L0.946435748,7.89003938 L0.945435748,7.89003938 Z M1.54843575,2.60203938 L2.33643575,7.14003938 L7.20643575,7.14003938 C7.62064931,7.14003938 7.95643575,7.47582581 7.95643575,7.89003938 C7.95643575,8.30425294 7.62064931,8.64003938 7.20643575,8.64003938 L2.33643575,8.64003938 L1.54843575,13.1780394 L13.8854357,7.89003938 L1.54843575,2.60203938 Z" id="Shape" fill="#000000" fill-rule="nonzero"></path>
    </g>
</svg>