<?xml version="1.0" encoding="UTF-8"?>
<svg width="16px" height="16px" viewBox="0 0 16 16" version="1.1" xmlns="http://www.w3.org/2000/svg" xmlns:xlink="http://www.w3.org/1999/xlink">
    <title>icon/16/person-16</title>
    <g id="icon/16/person-16" stroke="none" stroke-width="1" fill="none" fill-rule="evenodd">
        <path d="M10.5612263,8.073 C12.5674036,9.02124771 13.8871408,10.9985462 13.9932263,13.215 C14.0119091,13.4862533 13.8823224,13.7463746 13.6545423,13.8948455 C13.4267621,14.0433164 13.136466,14.0568817 12.8958329,13.9302992 C12.6551998,13.8037168 12.5019204,13.5568135 12.4952263,13.285 C12.3819873,10.8848401 10.403056,8.9970731 8.00022626,8.9970731 C5.59739656,8.9970731 3.61846527,10.8848401 3.50522626,13.285 C3.47720753,13.6917996 3.12930931,14.0016812 2.72199039,13.9826476 C2.31467147,13.963614 1.99718708,13.6226398 2.00722626,13.215 C2.11290319,10.9986978 3.43228728,9.02135214 5.43822626,8.073 C4.14555214,6.99477097 3.66648331,5.22248546 4.23989115,3.63983336 C4.81329899,2.05718126 6.31640092,1.00305247 7.99972626,1.00305247 C9.68305161,1.00305247 11.1861535,2.05718126 11.7595614,3.63983336 C12.3329692,5.22248546 11.8539004,6.99477097 10.5612263,8.073 L10.5612263,8.073 Z M10.5002263,5 C10.5002263,3.61928813 9.38093814,2.5 8.00022626,2.5 C6.61951439,2.5 5.50022626,3.61928813 5.50022626,5 C5.50022626,6.38071187 6.61951439,7.5 8.00022626,7.5 C9.38093814,7.5 10.5002263,6.38071187 10.5002263,5 Z" id="Shape" fill="#000000" fill-rule="nonzero"></path>
    </g>
</svg>