<?xml version="1.0" encoding="UTF-8"?>
<svg width="16px" height="16px" viewBox="0 0 16 16" version="1.1" xmlns="http://www.w3.org/2000/svg" xmlns:xlink="http://www.w3.org/1999/xlink">
    <title>icon/16/pin-16</title>
    <g id="icon/16/pin-16" stroke="none" stroke-width="1" fill="none" fill-rule="evenodd">
        <path d="M10.7935503,1.51236401 L14.5155503,5.23436401 C14.9199851,5.63894491 15.1011448,6.21565696 15.0007061,6.77883128 C14.9002673,7.34200561 14.5309114,7.82053654 14.0115503,8.06036401 L12.6845503,8.67336401 C11.8266627,9.07026501 11.1977216,9.83811101 10.9775503,10.757364 L10.3935503,13.211364 C10.0765503,14.543364 8.42155026,15.011364 7.45355026,14.043364 L5.24955026,11.839364 L1.27955026,15.808364 C1.0901995,15.9977148 0.814214748,16.0716647 0.555556796,16.0023575 C0.296898844,15.9330503 0.0948639852,15.7310154 0.0255567958,15.4723575 C-0.0437503936,15.2136995 0.0301994972,14.9377148 0.21955026,14.748364 L4.18855026,10.778364 L1.98455026,8.57436401 C1.01655026,7.60636401 1.48455026,5.95136401 2.81655026,5.63436401 L5.27055026,5.05036401 C6.19041361,4.83142353 6.95873585,4.20209241 7.35455026,3.34336401 L7.96755026,2.01636401 C8.20737773,1.49700282 8.68590866,1.12764694 9.24908298,1.0272082 C9.81225731,0.926769471 10.3889694,1.10792915 10.7935503,1.51236401 Z M5.78255026,10.251364 L8.51455026,12.982364 C8.57861038,13.046419 8.67231043,13.0708072 8.75947049,13.0461119 C8.84663056,13.0214165 8.91361148,12.951502 8.93455026,12.863364 L9.51855026,10.409364 C9.84490823,9.04254365 10.7799026,7.90079643 12.0555503,7.31136401 L13.3835503,6.69836401 C13.4578532,6.66413051 13.5107054,6.5957084 13.5250592,6.51516759 C13.539413,6.43462677 13.5134521,6.35215874 13.4555503,6.29436401 L9.73355026,2.57236401 C9.67575552,2.51446217 9.59328749,2.48850124 9.51274668,2.50285504 C9.43220587,2.51720885 9.36378375,2.5700611 9.32955026,2.64436401 L8.71655026,3.97236401 C8.12735927,5.24819849 6.98550621,6.18327957 5.61855026,6.50936401 L3.16455026,7.09336401 C3.07641227,7.11430279 3.00649773,7.18128371 2.98180238,7.26844377 C2.95710703,7.35560384 2.98149529,7.44930389 3.04555026,7.51336401 L5.77655026,10.245364 L5.78255026,10.251364 Z" id="Shape" fill="#000000" fill-rule="nonzero"></path>
    </g>
</svg>