<?xml version="1.0" encoding="UTF-8"?>
<svg width="16px" height="16px" viewBox="0 0 16 16" version="1.1" xmlns="http://www.w3.org/2000/svg" xmlns:xlink="http://www.w3.org/1999/xlink">
    <title>icon/16/search-16</title>
    <g id="icon/16/search-16" stroke="none" stroke-width="1" fill="none" fill-rule="evenodd">
        <path d="M10.6790033,11.7390033 C8.17666241,13.6813247 4.59549861,13.3437676 2.50016976,10.9680742 C0.404840909,8.59238068 0.517297387,4.99710149 2.75700325,2.75700325 C4.99710149,0.517297387 8.59238068,0.404840909 10.9680742,2.50016976 C13.3437676,4.59549861 13.6813247,8.17666241 11.7390033,10.6790033 L14.7790033,13.7190033 C14.9801125,13.9057455 15.0629875,14.1875216 14.9950038,14.4534085 C14.9270202,14.7192954 14.7190658,14.9267104 14.4530033,14.9940033 C14.187427,15.0620729 13.9058817,14.9796039 13.7190033,14.7790033 L10.6790033,11.7390033 Z M11.4990033,6.99900325 C11.5232044,5.37585932 10.6711274,3.86554814 9.26933834,3.04690951 C7.86754923,2.22827087 6.13345727,2.22827087 4.73166816,3.04690951 C3.32987906,3.86554814 2.47780214,5.37585932 2.50200325,6.99900325 C2.53865657,9.45730486 4.5419284,11.4309305 7.00050325,11.4309305 C9.4590781,11.4309305 11.4623499,9.45730486 11.4990033,6.99900325 L11.4990033,6.99900325 Z" id="Shape" fill="#000000" fill-rule="nonzero"></path>
    </g>
</svg>