<?xml version="1.0" encoding="UTF-8"?>
<svg width="16px" height="16px" viewBox="0 0 16 16" version="1.1" xmlns="http://www.w3.org/2000/svg" xmlns:xlink="http://www.w3.org/1999/xlink">
    <title>icon/16/shield-check-16</title>
    <g id="icon/16/shield-check-16" stroke="none" stroke-width="1" fill="none" fill-rule="evenodd">
        <path d="M8.55020376,0.083243261 L13.8002038,1.76324326 C14.5252505,1.99508677 15.0172038,2.66903099 15.0172038,3.43024326 L15.0172038,6.95024326 C15.0172038,8.51624326 14.6972038,10.1322433 13.7142038,11.6322433 C12.7312038,13.1302433 11.1292038,14.4452433 8.68220376,15.4872433 C8.25733749,15.6682081 7.77707003,15.6682081 7.35220376,15.4872433 C4.90520376,14.4452433 3.30320376,13.1302433 2.32020376,11.6322433 C1.33720376,10.1322433 1.01720376,8.51624326 1.01720376,6.95024326 L1.01720376,3.43024326 C1.01720376,2.66903099 1.50915706,1.99508677 2.23420376,1.76324326 L7.48420376,0.083243261 C7.83086987,-0.0277477537 8.20353764,-0.0277477537 8.55020376,0.083243261 Z M7.94020376,1.51224326 L7.94120376,1.51324326 L2.69120376,3.19324326 C2.58816197,3.22645165 2.51802317,3.32198553 2.51720376,3.43024326 L2.51720376,6.95024326 C2.51720376,8.31024326 2.79220376,9.61624326 3.57420376,10.8092433 C4.35820376,12.0032433 5.69520376,13.1512433 7.94020376,14.1072433 C7.98938705,14.1282546 8.04502047,14.1282546 8.09420376,14.1072433 C10.3392038,13.1502433 11.6762038,12.0042433 12.4602038,10.8102433 C13.2422038,9.61624326 13.5172038,8.30824326 13.5172038,6.95024326 L13.5172038,3.43024326 C13.5172038,3.32151287 13.4467882,3.22529728 13.3432038,3.19224326 L8.09320376,1.51224326 C8.04345701,1.49625377 7.9899505,1.49625377 7.94020376,1.51224326 Z M11.2972038,6.23024326 L7.79720376,9.73024326 C7.50438621,10.0226966 7.0300213,10.0226966 6.73720376,9.73024326 L5.23720376,8.23024326 C5.03609448,8.04350098 4.95321954,7.76172492 5.02120317,7.49583801 C5.0891868,7.2299511 5.29714118,7.02253612 5.56320376,6.95524326 C5.82877997,6.88717358 6.11032527,6.96964257 6.29720376,7.17024326 L7.26720376,8.14024326 L10.2372038,5.17024326 C10.532864,4.89505986 10.9932243,4.90301234 11.2792038,5.18824326 C11.5644347,5.47422269 11.5723872,5.93458297 11.2972038,6.23024326 L11.2972038,6.23024326 Z" id="Shape" fill="#000000" fill-rule="nonzero"></path>
    </g>
</svg>