<?xml version="1.0" encoding="UTF-8"?>
<svg width="16px" height="16px" viewBox="0 0 16 16" version="1.1" xmlns="http://www.w3.org/2000/svg" xmlns:xlink="http://www.w3.org/1999/xlink">
    <title>icon/16/sync-16</title>
    <g id="icon/16/sync-16" stroke="none" stroke-width="1" fill="none" fill-rule="evenodd">
        <path d="M1.7050008,8.00500182 C1.90260174,7.98131634 2.10151468,8.0371391 2.25793903,8.16017792 C2.41436339,8.28321674 2.51547201,8.46338217 2.5390008,8.66100182 C2.79934247,10.8141192 4.30068693,12.6132095 6.37244679,13.2546948 C8.44420665,13.8961801 10.6995073,13.2602712 12.1310008,11.6310018 L10.9270008,10.4270018 C10.8553124,10.3554947 10.8338357,10.2478071 10.8726086,10.1542702 C10.9113816,10.0607333 11.0027464,9.99982066 11.1040008,10.0000018 L14.7500008,10.0000018 C14.888072,10.0000018 15.0000012,10.1119306 15.0000012,10.2500018 L15.0000012,13.8960018 C15.000182,13.9972563 14.9392694,14.0886211 14.8457324,14.127394 C14.7521955,14.1661669 14.6445079,14.1446902 14.5730008,14.0730018 L13.1930008,12.6930018 C11.3534601,14.7261082 8.49653691,15.498492 5.88314786,14.6692581 C3.26975881,13.8400241 1.38081109,11.5617652 1.0500008,8.84000182 C1.02631533,8.64240089 1.08213808,8.44348795 1.2051769,8.28706359 C1.32821572,8.13063924 1.50838115,8.02953061 1.7060008,8.00600182 L1.7050008,8.00500182 Z M8.0000004,2.50000182 C6.41795042,2.49832925 4.91216768,3.17959479 3.8690008,4.36900182 L5.0730008,5.57300182 C5.14468922,5.64450892 5.16616587,5.75219654 5.12739296,5.84573346 C5.08862004,5.93927038 4.99725524,6.00018298 4.8960008,6.00000182 L1.2500008,6.00000182 C1.11192962,6.00000182 1.0000004,5.88807301 1.0000004,5.75000182 L1.0000004,2.10400182 C0.999819642,2.00274738 1.06073224,1.91138258 1.15426916,1.87260967 C1.24780608,1.83383675 1.35549371,1.8553134 1.4270008,1.92700182 L2.8070008,3.30700182 C4.64654147,1.27389547 7.5034647,0.501511622 10.1168537,1.33074558 C12.7302428,2.15997955 14.6191905,4.43823845 14.9500008,7.16000182 C14.9991541,7.57145396 14.7054529,7.94484848 14.2940008,7.99400182 C13.8825487,8.04315516 13.5091541,7.74945396 13.4600008,7.33800182 C13.1252061,4.5766973 10.7815274,2.50000904 8.0000004,2.50000182 Z" id="Shape" fill="#000000" fill-rule="nonzero"></path>
    </g>
</svg>