<?xml version="1.0" encoding="UTF-8"?>
<svg width="16px" height="16px" viewBox="0 0 16 16" version="1.1" xmlns="http://www.w3.org/2000/svg" xmlns:xlink="http://www.w3.org/1999/xlink">
    <title>icon/16/x-16</title>
    <g id="icon/16/x-16" stroke="none" stroke-width="1" fill="none" fill-rule="evenodd">
        <path d="M3.21934003,3.23936549 C3.51215758,2.94691212 3.98652249,2.94691212 4.27934003,3.23936549 L7.49934003,6.45936549 L10.71934,3.23936549 C10.9060823,3.03825622 11.1878584,2.95538127 11.4537453,3.02336491 C11.7196322,3.09134854 11.9270472,3.29930292 11.99434,3.56536549 C12.0624097,3.83094171 11.9799407,4.11248701 11.77934,4.29936549 L8.55934003,7.51936549 L11.77934,10.7393655 C11.9804493,10.9261078 12.0633243,11.2078838 11.9953406,11.4737707 C11.927357,11.7396577 11.7194026,11.9470726 11.45334,12.0143655 C11.1877638,12.0824352 10.9062185,11.9999662 10.71934,11.7993655 L7.49934003,8.57936549 L4.27934003,11.7993655 C3.98367974,12.0745489 3.52331946,12.0665964 3.23734003,11.7813655 C2.95210911,11.4953861 2.94415663,11.0350258 3.21934003,10.7393655 L6.43934003,7.51936549 L3.21934003,4.29936549 C2.92688666,4.00654795 2.92688666,3.53218304 3.21934003,3.23936549 Z" id="Path" fill="#000000" fill-rule="nonzero"></path>
    </g>
</svg>