<?xml version="1.0" encoding="UTF-8"?>
<svg width="16px" height="16px" viewBox="0 0 16 16" version="1.1" xmlns="http://www.w3.org/2000/svg" xmlns:xlink="http://www.w3.org/1999/xlink">
    <title>icon/16/zap-16</title>
    <g id="icon/16/zap-16" stroke="none" stroke-width="1" fill="none" fill-rule="evenodd">
        <path d="M9.54521137,0.428234059 C10.0677551,-0.0790073457 10.877144,-0.143025768 11.4729317,0.27576146 C12.0687195,0.694548689 12.2825499,1.47780164 11.9822114,2.14123406 L10.4562114,5.49823406 L12.5792114,5.49823406 C14.1492114,5.49823406 14.9252114,7.40723406 13.7992114,8.50223406 L6.45921137,15.6442341 C6.22606781,15.8711758 5.91357037,15.9982341 5.58821137,15.9982341 L5.28621137,15.9982341 C4.86976782,15.9982341 4.48068117,15.7908085 4.24852352,15.4450802 C4.01636586,15.0993519 3.97162913,14.6607118 4.12921137,14.2752341 L5.67421137,10.4982341 L3.50321137,10.4982341 C1.93321137,10.4982341 1.15721137,8.58923406 2.28321137,7.49423406 L9.54421137,0.427234059 L9.54521137,0.428234059 Z M10.5922114,1.50223406 L3.32721137,8.56923406 C3.25420445,8.64041226 3.23173929,8.74879504 3.2704398,8.84312753 C3.3091403,8.93746001 3.40125068,8.99883744 3.50321137,8.99823406 L6.79121137,8.99823406 C7.04109483,8.99828398 7.27454103,9.12278275 7.41379905,9.33026515 C7.55305707,9.53774756 7.57983391,9.80095864 7.48521137,10.0322341 L5.77221137,14.2202341 L12.7542114,7.42723406 C12.827085,7.35618266 12.8496105,7.24804577 12.8111679,7.15380656 C12.7727254,7.05956734 12.6809897,6.99804052 12.5792114,6.99823406 L9.29121137,6.99823406 C9.03626954,6.99825621 8.79877431,6.86877032 8.66068785,6.65446337 C8.52260139,6.44015642 8.50283541,6.17037894 8.60821137,5.93823406 L10.6162114,1.52023406 L10.6192114,1.51423406 C10.6182966,1.51106498 10.6169507,1.50803664 10.6152114,1.50523406 L10.6092114,1.49923406 L10.6012114,1.49823406 C10.5982114,1.49823406 10.5952114,1.50023406 10.5922114,1.50223406 Z" id="Shape" fill="#000000" fill-rule="nonzero"></path>
    </g>
</svg>