<?xml version="1.0" encoding="UTF-8"?>
<svg width="24px" height="24px" viewBox="0 0 24 24" version="1.1" xmlns="http://www.w3.org/2000/svg" xmlns:xlink="http://www.w3.org/1999/xlink">
    <title>Banner type icon</title>
    <g id="Symbols" stroke="none" stroke-width="1" fill="none" fill-rule="evenodd">
        <g id="Banners/Warning" transform="translate(-24, -10)" fill="#EAA72B" fill-rule="nonzero">
            <g id="Banner-type-icon" transform="translate(24.5298, 10.9955)">
                <path d="M9.30618747,1.24875 C10.2691875,-0.41625 12.6711875,-0.41625 13.6341875,1.24875 L22.6011875,16.75275 C23.5641875,18.41975 22.3611875,20.50475 20.4361875,20.50475 L2.50418747,20.50475 C0.578187466,20.50475 -0.623812534,18.41975 0.339187466,16.75275 L9.30618747,1.24875 Z M11.4701875,6.50475 C11.0559739,6.50475 10.7201875,6.84053644 10.7201875,7.25475 L10.7201875,11.75475 C10.7201875,12.1689636 11.0559739,12.50475 11.4701875,12.50475 C11.884401,12.50475 12.2201875,12.1689636 12.2201875,11.75475 L12.2201875,7.25475 C12.2201875,6.84053644 11.884401,6.50475 11.4701875,6.50475 Z M12.4701875,15.50475 C12.4701875,14.9524653 12.0224722,14.50475 11.4701875,14.50475 C10.9179027,14.50475 10.4701875,14.9524653 10.4701875,15.50475 C10.4701875,16.0570347 10.9179027,16.50475 11.4701875,16.50475 C12.0224722,16.50475 12.4701875,16.0570347 12.4701875,15.50475 Z" id="alert-fill-24"></path>
            </g>
        </g>
    </g>
</svg>