<?xml version="1.0" encoding="UTF-8"?>
<svg width="24px" height="24px" viewBox="0 0 24 24" version="1.1" xmlns="http://www.w3.org/2000/svg" xmlns:xlink="http://www.w3.org/1999/xlink">
    <title>Banner type icon</title>
    <g id="Symbols" stroke="none" stroke-width="1" fill="none" fill-rule="evenodd">
        <g id="Banners/Error" transform="translate(-24, -10)" fill="#D91C1C" fill-rule="nonzero">
            <g id="Banner-type-icon" transform="translate(25, 11)">
                <path d="M11,0 C17.075,0 22,4.925 22,11 C22,17.075 17.075,22 11,22 C4.925,22 0,17.075 0,11 C0,4.925 4.925,0 11,0 Z M14.241,10.5 L14.241,10.499 C14.141,7.791 13.249,5.595 12.351,4.047 C11.9686621,3.38560994 11.5325224,2.75681952 11.047,2.167 L11,2.11 L10.953,2.169 C10.599,2.594 10.125,3.229 9.649,4.049 C8.751,5.596 7.859,7.792 7.759,10.5 L14.241,10.5 Z M1.513,10.5 L6.258,10.5 C6.358,7.463 7.358,5.01 8.351,3.296 C8.741,2.624 9.131,2.063 9.47,1.623 C5.11,2.329 1.746,6 1.513,10.5 Z M20.487,10.5 C20.254,6 16.89,2.329 12.53,1.623 C12.869,2.063 13.259,2.624 13.649,3.296 C14.642,5.01 15.642,7.463 15.742,10.5 L20.487,10.5 Z M7.787,12 C7.969,14.478 8.807,16.5 9.649,17.953 C10.031,18.614 10.467,19.243 10.953,19.833 L11,19.89 L11.047,19.831 C11.401,19.406 11.875,18.771 12.351,17.951 C13.193,16.5 14.03,14.48 14.213,12 L7.787,12 Z M6.283,12 L1.552,12 C2.0038962,16.256729 5.24545855,19.6862021 9.47,20.377 C9.06176324,19.8437249 8.68800248,19.2849208 8.351,18.704 C7.413,17.085 6.47,14.807 6.283,12 L6.283,12 Z M15.717,12 C15.531,14.807 14.587,17.085 13.649,18.704 C13.259,19.376 12.869,19.937 12.531,20.377 C16.7545885,19.6850691 19.9949924,16.2559555 20.447,12 L15.717,12 Z" id="Shape"></path>
            </g>
        </g>
    </g>
</svg>