<?xml version="1.0" encoding="UTF-8"?>
<svg width="24px" height="24px" viewBox="0 0 24 24" version="1.1" xmlns="http://www.w3.org/2000/svg" xmlns:xlink="http://www.w3.org/1999/xlink">
    <title>Banner type icon</title>
    <g id="Symbols" stroke="none" stroke-width="1" fill="none" fill-rule="evenodd">
        <g id="Banners/Error" transform="translate(-24, -10)" fill="#D91C1C" fill-rule="nonzero">
            <g id="Banner-type-icon" transform="translate(25.999, 12)">
                <path d="M13.833,0 C14.032,0 14.222,0.079 14.363,0.22 L19.781,5.638 C19.922,5.778 20.001,5.97 20.001,6.168 L20.001,13.832 C20.001,14.0308673 19.9217856,14.221545 19.781,14.362 L14.363,19.78 C14.222545,19.9207856 14.0318673,20 13.833,20 L6.169,20 C5.97013271,20 5.779455,19.9207856 5.639,19.78 L0.219,14.362 C0.0788596466,14.2211955 3.55271368e-15,14.0306585 3.55271368e-15,13.832 L3.55271368e-15,6.168 C3.55271368e-15,5.969 0.079,5.779 0.22,5.638 L5.638,0.218 C5.779455,0.0792143562 5.97013271,0 6.169,0 L13.833,0 Z M14.251,9 L5.751,9 C5.33678644,9 5.001,9.33578644 5.001,9.75 L5.00784662,9.85177056 C5.05750904,10.2178461 5.37130423,10.5 5.751,10.5 L14.251,10.5 C14.6652136,10.5 15.001,10.1642136 15.001,9.75 C15.001,9.33578645 14.6652136,9 14.251,9 Z" id="Shape"></path>
            </g>
        </g>
    </g>
</svg>