<?xml version="1.0" encoding="UTF-8"?>
<svg width="24px" height="24px" viewBox="0 0 24 24" version="1.1" xmlns="http://www.w3.org/2000/svg" xmlns:xlink="http://www.w3.org/1999/xlink">
    <title>Banner type icon</title>
    <g id="Symbols" stroke="none" stroke-width="1" fill="none" fill-rule="evenodd">
        <g id="Banners/Success" transform="translate(-24, -10)" fill="#3CCA80" fill-rule="nonzero">
            <g id="Banner-type-icon" transform="translate(25, 11)">
                <path d="M11,0 C17.075,0 22,4.925 22,11 C22,17.075 17.075,22 11,22 C4.925,22 0,17.075 0,11 C0,4.925 4.925,0 11,0 Z M11,1.5 C5.75329488,1.5 1.5,5.75329488 1.5,11 C1.5,16.2467051 5.75329488,20.5 11,20.5 C16.2467051,20.5 20.5,16.2467051 20.5,11 C20.5,5.75329488 16.2467051,1.5 11,1.5 Z M15.22,7.22 C15.5155098,6.94464114 15.9760097,6.95276612 16.2616218,7.2383782 C16.5472339,7.52399028 16.5553589,7.98449025 16.28,8.28 L9.78,14.78 C9.48718245,15.0724534 9.01281755,15.0724534 8.72,14.78 L5.72,11.78 C5.44464114,11.4844902 5.45276612,11.0239903 5.7383782,10.7383782 C6.02399028,10.4527661 6.48449025,10.4446411 6.78,10.72 L9.25,13.19 Z" id="Combined-Shape"></path>
            </g>
        </g>
    </g>
</svg>