<?xml version="1.0" encoding="UTF-8"?>
<svg width="24px" height="24px" viewBox="0 0 24 24" version="1.1" xmlns="http://www.w3.org/2000/svg" xmlns:xlink="http://www.w3.org/1999/xlink">
    <title>Banner type icon</title>
    <g id="Symbols" stroke="none" stroke-width="1" fill="none" fill-rule="evenodd">
        <g id="Banners/Information" transform="translate(-24, -10)" fill="#70C1E5" fill-rule="nonzero">
            <g id="Banner-type-icon" transform="translate(25, 11)">
                <path d="M11,0 C17.075,0 22,4.925 22,11 C22,17.075 17.075,22 11,22 C4.925,22 0,17.075 0,11 C0,4.925 4.925,0 11,0 Z M11,1.5 C5.75329488,1.5 1.5,5.75329488 1.5,11 C1.5,16.2467051 5.75329488,20.5 11,20.5 C16.2467051,20.5 20.5,16.2467051 20.5,11 C20.5,5.75329488 16.2467051,1.5 11,1.5 Z M11.25,9.5 C11.6642136,9.5 12,9.83578644 12,10.25 L12,14.5 L12.75,14.5 C13.1642136,14.5 13.5,14.8357864 13.5,15.25 C13.5,15.6642136 13.1642136,16 12.75,16 L9.75,16 C9.33578644,16 9,15.6642136 9,15.25 C9,14.8357864 9.33578644,14.5 9.75,14.5 L10.5,14.5 L10.5,11 L9.75,11 C9.33578644,11 9,10.6642136 9,10.25 C9,9.83578644 9.33578644,9.5 9.75,9.5 L11.25,9.5 Z M11,5.5 C11.5522847,5.5 12,5.94771525 12,6.5 C12,7.05228475 11.5522847,7.5 11,7.5 C10.4477153,7.5 10,7.05228475 10,6.5 C10,5.94771525 10.4477153,5.5 11,5.5 Z" id="Shape"></path>
            </g>
        </g>
    </g>
</svg>