<?xml version="1.0" encoding="UTF-8"?>
<svg width="17px" height="16px" viewBox="0 0 17 16" version="1.1" xmlns="http://www.w3.org/2000/svg" xmlns:xlink="http://www.w3.org/1999/xlink">
    <title>icon/16/book-16</title>
    <g id="Symbols" stroke="none" stroke-width="1" fill="none" fill-rule="evenodd">
        <g id="X/Navigation/Help/Inactive_Hover" transform="translate(-6, -4)" fill="#FF963B" fill-rule="nonzero">
            <g id="icon/16/book-16" transform="translate(6.0172, 5)">
                <path d="M0,0.750008838 C0,0.335795275 0.335786438,4.40810322e-06 0.75,4.40810322e-06 L5.003,4.40810322e-06 C6.23,4.40810322e-06 7.32,0.590008838 8.003,1.50100884 C8.71089891,0.554642264 9.82416784,-0.00180684116 11.006,4.40810322e-06 L15.251,4.40810322e-06 C15.6652136,4.40810322e-06 16.001,0.335795275 16.001,0.750008838 L16.001,11.2500088 C16.001,11.6642224 15.6652136,12.0000044 15.251,12.0000044 L10.744,12.0000044 C10.1472609,12.0000044 9.57496083,12.2370532 9.153,12.6590088 L8.531,13.2800088 C8.23818245,13.5724622 7.76381755,13.5724622 7.471,13.2800088 L6.849,12.6590088 C6.42703917,12.2370532 5.85473908,12.0000044 5.258,12.0000044 L0.75,12.0000044 C0.335786438,12.0000044 0,11.6642224 0,11.2500088 L0,0.750008838 Z M7.251,11.0740088 L7.255,6.00100884 L7.253,3.74800884 C7.25189612,2.50614927 6.24486006,1.50000884 5.003,1.50000884 L1.5,1.50000884 L1.5,10.5000088 L5.257,10.5000088 C5.96242502,10.4999847 6.65355204,10.698935 7.251,11.0740088 Z M8.755,3.75000884 L8.751,11.0720088 C9.34812665,10.6980992 10.0384657,10.4998693 10.743,10.5000088 L14.5,10.5000088 L14.5,1.50000884 L11.005,1.50000884 C9.76235931,1.50000884 8.755,2.50736815 8.755,3.75000884 L8.755,3.75000884 Z" id="Shape"></path>
            </g>
        </g>
    </g>
</svg>