<?xml version="1.0" encoding="UTF-8"?>
<svg width="16px" height="16px" viewBox="0 0 16 16" version="1.1" xmlns="http://www.w3.org/2000/svg" xmlns:xlink="http://www.w3.org/1999/xlink">
    <title>icon/16/book-16</title>
    <g id="Symbols" stroke="none" stroke-width="1" fill="none" fill-rule="evenodd">
        <g id="X/Navigation/Help/Inactive_Hover_Hover" transform="translate(-6, -4)" fill="#E64E2F" fill-rule="nonzero">
            <g id="icon/16/book-16" transform="translate(6.0172, 5)">
                <path d="M0,0.75001759 C0,0.335804028 0.335786438,0 0.75,0 L4.23279624,0 C5.22279049,0 6.12604207,0.375101467 6.79340399,1.01098153 C7.14563574,1.34659725 7.23267315,1.60955699 7.2331204,2.23271735 L7.23279624,13.499326 C6.85796031,13.4925632 6.67972617,13.4562859 6.51175742,13.221209 L6.10279624,12.6590176 C5.68083541,12.2370619 5.07953532,12.0000124 4.48279624,12.0000176 L0.75,12.0000176 C0.335786438,12.0000176 0,11.6642312 0,11.2500176 L0,0.75001759 Z M15.9724533,0.75003518 C15.9724533,0.335821617 15.6366668,1.75899311e-05 15.2224533,1.75899311e-05 L11.739657,1.75899311e-05 C10.7496628,1.75899311e-05 9.84641119,0.375119056 9.17904927,1.01099912 C8.85883859,1.31610432 8.75779679,1.56116325 8.74173589,2.0713875 L8.73965703,13.4993436 C9.11449295,13.4925808 9.29272709,13.4563035 9.46069584,13.2212266 L9.86965703,12.6590352 C10.2916179,12.2370795 10.8929179,12.00003 11.489657,12.0000352 L15.2224533,12.0000352 C15.6366668,12.0000352 15.9724533,11.6642487 15.9724533,11.2500352 L15.9724533,0.75003518 Z" id="Shape"></path>
            </g>
        </g>
    </g>
</svg>