<?xml version="1.0" encoding="UTF-8"?>
<svg width="16px" height="16px" viewBox="0 0 16 16" version="1.1" xmlns="http://www.w3.org/2000/svg" xmlns:xlink="http://www.w3.org/1999/xlink">
    <title>Close icon</title>
    <g id="Symbols" stroke="none" stroke-width="1" fill="none" fill-rule="evenodd">
        <g id="Banners/Error" transform="translate(-1568, -14)" fill="#D91C1C" fill-rule="nonzero">
            <g id="Close-icon" transform="translate(1571.5, 17.5)">
                <path d="M0.219340034,0.239365494 C0.51215758,-0.0530878838 0.986522487,-0.0530878838 1.27934003,0.239365494 L4.49934003,3.45936549 L7.71934003,0.239365494 C7.90608232,0.0382562171 8.18785837,-0.0446187256 8.45374528,0.0233649076 C8.71963219,0.0913485408 8.92704718,0.299302918 8.99434003,0.565365494 C9.06240972,0.830941709 8.97994073,1.11248701 8.77934003,1.29936549 L5.55934003,4.51936549 L8.77934003,7.73936549 C8.98044931,7.92610778 9.06332425,8.20788383 8.99534062,8.47377074 C8.92735699,8.73965765 8.71940261,8.94707264 8.45334003,9.01436549 C8.18776382,9.08243518 7.90621852,8.99996619 7.71934003,8.79936549 L4.49934003,5.57936549 L1.27934003,8.79936549 C0.983679743,9.07454889 0.523319463,9.06659641 0.237340034,8.78136549 C-0.0478908859,8.49538607 -0.0558433668,8.03502578 0.219340034,7.73936549 L3.43934003,4.51936549 L0.219340034,1.29936549 C-0.0731133445,1.00654795 -0.0731133445,0.532183041 0.219340034,0.239365494 Z" id="Path"></path>
            </g>
        </g>
    </g>
</svg>