<?xml version="1.0" encoding="UTF-8"?>
<svg width="16px" height="16px" viewBox="0 0 16 16" version="1.1" xmlns="http://www.w3.org/2000/svg" xmlns:xlink="http://www.w3.org/1999/xlink">
    <title>Loading</title>
    <g id="Page-1" stroke="none" stroke-width="1" fill="none" fill-rule="evenodd" opacity="0.899999976">
        <g id="Infrastructure/Edit/Initial" transform="translate(0, -10)" fill="#70C1E5" fill-rule="nonzero">
            <g id="Loading" transform="translate(0.6, 10)">
                <path d="M7.40524132,0 C7.63924327,0.000326433596 7.87312401,0.0106692338 8.10624132,0.031 C8.84924132,0.095 9.39524132,0.645 9.56524132,1.29 L9.85324132,2.397 C9.87124132,2.463 9.93224132,2.555 10.0652413,2.621 C10.2962413,2.735 10.5192413,2.864 10.7332413,3.007 C10.8562413,3.089 10.9662413,3.097 11.0322413,3.078 L12.1352413,2.775 C12.7792413,2.599 13.5272413,2.796 13.9552413,3.405 C14.2252413,3.79 14.4612413,4.197 14.6592413,4.623 C14.9742413,5.298 14.7702413,6.045 14.2952413,6.514 L13.4812413,7.32 C13.4322413,7.368 13.3832413,7.467 13.3932413,7.614 C13.4092413,7.871 13.4092413,8.129 13.3932413,8.386 C13.3832413,8.533 13.4312413,8.632 13.4812413,8.68 L14.2952413,9.486 C14.7702413,9.955 14.9742413,10.702 14.6592413,11.377 C14.4608513,11.8025964 14.2252698,12.2098444 13.9552413,12.594 C13.5272413,13.204 12.7792413,13.401 12.1352413,13.224 L11.0332413,12.922 C10.9662413,12.903 10.8562413,12.911 10.7332413,12.993 C10.519221,13.136081 10.2960789,13.2650224 10.0652413,13.379 C9.93224132,13.445 9.87124132,13.537 9.85424132,13.603 L9.56424132,14.709 C9.39624132,15.355 8.84924132,15.905 8.10624132,15.969 C7.63980716,16.0099981 7.17067549,16.0099981 6.70424132,15.969 C5.96124132,15.905 5.41524132,15.355 5.24624132,14.709 L4.95724132,13.603 C4.93924132,13.537 4.87824132,13.445 4.74524132,13.379 C4.51416705,13.2654654 4.29099607,13.1365073 4.07724132,12.993 C3.95424132,12.911 3.84424132,12.903 3.77824132,12.922 L2.67524132,13.225 C2.03124132,13.401 1.28324132,13.204 0.855241321,12.595 C0.585779853,12.2101312 0.350229374,11.8026022 0.151241321,11.377 C-0.163758679,10.702 0.0402413215,9.955 0.514241321,9.486 L1.32924132,8.68 C1.37924132,8.632 1.42724132,8.533 1.41724132,8.386 C1.40124089,8.12891538 1.40124089,7.87108462 1.41724132,7.614 C1.42724132,7.467 1.37924132,7.368 1.32924132,7.32 L0.514241321,6.514 C0.0402413215,6.045 -0.163758679,5.298 0.151241321,4.623 C0.349365922,4.19726536 0.584960633,3.78999439 0.855241321,3.406 C1.28324132,2.796 2.03124132,2.599 2.67524132,2.776 L3.77724132,3.078 C3.84424132,3.097 3.95424132,3.089 4.07724132,3.007 C4.29124132,2.864 4.51424132,2.735 4.74524132,2.621 C4.87824132,2.555 4.93924132,2.463 4.95624132,2.397 L5.24624132,1.291 C5.41424132,0.645 5.96124132,0.095 6.70424132,0.03 C6.93524132,0.01 7.16924132,0 7.40524132,0 Z M7.40524132,5 C5.74838707,5 4.40524132,6.34314575 4.40524132,8 C4.40524132,9.65685425 5.74838707,11 7.40524132,11 C9.06209557,11 10.4052413,9.65685425 10.4052413,8 C10.4052413,6.34314575 9.06209557,5 7.40524132,5 Z M8.90524141,7.99999989 C8.9050627,7.46392298 8.61890395,6.96866268 8.15455832,6.70077886 C7.69021268,6.43289505 7.1182253,6.43308565 6.6540583,6.70127886 C6.1898913,6.96947208 5.90406268,7.46492298 5.90424124,8.001 C5.90451746,8.82970327 6.57653805,9.50127614 7.40524132,9.50100009 C8.23394459,9.50072386 8.90551746,8.82870327 8.90524141,7.99999989 Z" id="Shape"></path>
            </g>
        </g>
    </g>
</svg>